<svg width="174" height="26" viewBox="0 0 174 26" fill="none" xmlns="http://www.w3.org/2000/svg">
<path d="M3.03472 13.2945C3.04261 16.0559 5.32497 18.353 7.99064 17.6322C8.67574 17.4469 9.35015 17.2233 10.0103 16.9621C12.216 16.0893 14.2187 14.8135 15.9042 13.2075C17.5897 11.6016 18.9249 9.69695 19.8336 7.60238C20.0721 7.0527 20.2799 6.49276 20.4567 5.92488C21.2775 3.28827 18.9616 1.00639 16.2002 1.01428L7.99975 1.03769C5.23833 1.04558 3.00616 3.29053 3.01404 6.05195L3.03472 13.2945Z" fill="#E81A68"/>
<g style="mix-blend-mode:multiply">
<path d="M3.03414 12.7567C3.02626 9.99528 5.29547 7.68517 7.96522 8.39081C8.65136 8.57217 9.32703 8.7919 9.98862 9.04934C12.1993 9.90955 14.2093 11.1739 15.9039 12.7702C17.5986 14.3665 18.9446 16.2635 19.8653 18.3528C20.1069 18.9011 20.3179 19.4598 20.498 20.0267C21.3338 22.6586 19.031 24.9537 16.2696 24.9615L8.06908 24.985C5.30767 24.9928 3.06271 22.7607 3.05482 19.9993L3.03414 12.7567Z" fill="#49BEFF"/>
</g>
<path d="M45.292 22.155C43.6593 22.155 42.2023 21.7933 40.921 21.07C39.6603 20.326 38.6683 19.303 37.945 18.001C37.2217 16.699 36.86 15.211 36.86 13.537C36.86 11.8423 37.201 10.3543 37.883 9.073C38.565 7.771 39.5053 6.748 40.704 6.004C41.9027 5.26 43.277 4.888 44.827 4.888C46.3563 4.888 47.71 5.24967 48.888 5.973C50.066 6.67567 50.9857 7.65733 51.647 8.918C52.3083 10.158 52.639 11.5943 52.639 13.227C52.639 13.4957 52.5563 13.7127 52.391 13.878C52.2257 14.0227 52.0087 14.095 51.74 14.095H38.1V12.483H52.236L50.872 13.506C50.9133 12.1627 50.686 10.9743 50.19 9.941C49.694 8.90767 48.981 8.10167 48.051 7.523C47.1417 6.92367 46.067 6.624 44.827 6.624C43.649 6.624 42.595 6.92367 41.665 7.523C40.7557 8.10167 40.0323 8.90767 39.495 9.941C38.9783 10.9743 38.72 12.173 38.72 13.537C38.72 14.8803 38.999 16.0687 39.557 17.102C40.115 18.1353 40.89 18.9517 41.882 19.551C42.874 20.1297 44.0107 20.419 45.292 20.419C46.098 20.419 46.904 20.2847 47.71 20.016C48.5367 19.7267 49.1877 19.3547 49.663 18.9C49.8283 18.7347 50.0247 18.652 50.252 18.652C50.5 18.6313 50.7067 18.6933 50.872 18.838C51.0993 19.024 51.213 19.2307 51.213 19.458C51.2337 19.6853 51.1407 19.892 50.934 20.078C50.2727 20.6773 49.4047 21.1733 48.33 21.566C47.276 21.9587 46.2633 22.155 45.292 22.155ZM83.0236 22C82.755 22 82.5276 21.9173 82.3416 21.752C82.1763 21.566 82.0936 21.3387 82.0936 21.07V12.111C82.0936 10.5197 81.67 9.21767 80.8226 8.205C79.996 7.19233 78.911 6.686 77.5676 6.686C76.1416 6.686 74.974 7.16133 74.0646 8.112C73.176 9.042 72.7523 10.3027 72.7936 11.894H70.9336C70.975 10.468 71.285 9.228 71.8636 8.174C72.4423 7.12 73.2276 6.30367 74.2196 5.725C75.2116 5.12567 76.3276 4.826 77.5676 4.826C78.8283 4.826 79.934 5.136 80.8846 5.756C81.8353 6.376 82.5793 7.23367 83.1166 8.329C83.6746 9.42433 83.9536 10.685 83.9536 12.111V21.07C83.9536 21.3387 83.871 21.566 83.7056 21.752C83.5403 21.9173 83.313 22 83.0236 22ZM60.6106 22C60.342 22 60.1146 21.9173 59.9286 21.752C59.7633 21.566 59.6806 21.3387 59.6806 21.07V5.973C59.6806 5.68367 59.7633 5.45633 59.9286 5.291C60.1146 5.12567 60.342 5.043 60.6106 5.043C60.9 5.043 61.1273 5.12567 61.2926 5.291C61.458 5.45633 61.5406 5.68367 61.5406 5.973V21.07C61.5406 21.3387 61.458 21.566 61.2926 21.752C61.1273 21.9173 60.9 22 60.6106 22ZM71.8636 22C71.595 22 71.3676 21.9173 71.1816 21.752C71.0163 21.566 70.9336 21.3387 70.9336 21.07V12.111C70.9336 10.5197 70.51 9.21767 69.6626 8.205C68.836 7.19233 67.751 6.686 66.4076 6.686C64.9816 6.686 63.814 7.14067 62.9046 8.05C61.9953 8.95933 61.5406 10.1373 61.5406 11.584H59.9906C60.0526 10.2613 60.3626 9.09367 60.9206 8.081C61.4993 7.06833 62.264 6.27267 63.2146 5.694C64.1653 5.11533 65.2296 4.826 66.4076 4.826C67.6683 4.826 68.774 5.136 69.7246 5.756C70.6753 6.376 71.4193 7.23367 71.9566 8.329C72.5146 9.42433 72.7936 10.685 72.7936 12.111V21.07C72.7936 21.3387 72.711 21.566 72.5456 21.752C72.3803 21.9173 72.153 22 71.8636 22ZM99.9775 22.186C98.3242 22.186 96.8362 21.814 95.5135 21.07C94.2115 20.3053 93.1782 19.272 92.4135 17.97C91.6695 16.6473 91.2975 15.1697 91.2975 13.537C91.2975 11.8837 91.6695 10.406 92.4135 9.104C93.1782 7.78133 94.2115 6.748 95.5135 6.004C96.8362 5.23933 98.3242 4.857 99.9775 4.857C101.631 4.857 103.109 5.23933 104.411 6.004C105.713 6.748 106.736 7.78133 107.48 9.104C108.244 10.406 108.627 11.8837 108.627 13.537L107.852 14.777C107.852 16.1823 107.5 17.443 106.798 18.559C106.116 19.675 105.186 20.5637 104.008 21.225C102.83 21.8657 101.486 22.186 99.9775 22.186ZM99.9775 20.45C101.28 20.45 102.437 20.1503 103.45 19.551C104.483 18.931 105.289 18.1043 105.868 17.071C106.467 16.017 106.767 14.839 106.767 13.537C106.767 12.2143 106.467 11.0363 105.868 10.003C105.289 8.949 104.483 8.12233 103.45 7.523C102.437 6.903 101.28 6.593 99.9775 6.593C98.6962 6.593 97.5388 6.903 96.5055 7.523C95.4722 8.12233 94.6558 8.949 94.0565 10.003C93.4572 11.0363 93.1575 12.2143 93.1575 13.537C93.1575 14.839 93.4572 16.017 94.0565 17.071C94.6558 18.1043 95.4722 18.931 96.5055 19.551C97.5388 20.1503 98.6962 20.45 99.9775 20.45ZM107.728 22C107.438 22 107.201 21.9173 107.015 21.752C106.849 21.566 106.767 21.3387 106.767 21.07V15.397L107.356 13.537H108.627V21.07C108.627 21.3387 108.544 21.566 108.379 21.752C108.213 21.9173 107.996 22 107.728 22Z" fill="#E81A68"/>
</svg>
