<svg width="2095" height="712" viewBox="0 0 2095 712" fill="none" xmlns="http://www.w3.org/2000/svg">
<path d="M1979.5 633.002C1958.76 647.882 1926.74 647.882 1873.45 648.132C1817.58 648.392 1799.15 646.762 1776.04 663.342C1757.51 676.612 1750.65 696.342 1748.64 703.672C1748.31 704.952 1749.49 706.052 1750.79 705.632C1779.24 697.122 1816.19 697.782 1858.78 698.442C1875.56 698.702 1893.2 698.962 1911.56 698.652C1968.96 697.732 1982.14 653.062 1982.23 634.292C1982.23 633.302 1981.43 632.642 1980.56 632.642C1980.21 632.642 1979.83 632.762 1979.5 632.992M2022.97 502.552C1987.7 529.232 1932.92 529.252 1840.53 529.702C1745.41 530.172 1714.03 527.392 1674.69 555.612C1641.22 579.582 1630.14 615.912 1627.57 626.282C1627.22 627.562 1628.44 628.622 1629.72 628.212C1678.44 613.082 1742.05 614.212 1815.62 615.342C1844.17 615.792 1874.18 616.222 1905.44 615.692C2005.56 614.072 2026.66 534.242 2025.69 503.812C2025.67 502.822 2024.89 502.162 2024.04 502.162C2023.69 502.162 2023.31 502.282 2022.98 502.542M2091.45 311.652C2034.33 356.182 1945.15 356.202 1793.9 356.912C1639.63 357.662 1588.71 353.162 1524.87 398.922C1468.46 439.372 1451.2 501.472 1447.95 515.352C1447.67 516.622 1448.87 517.692 1450.12 517.282C1529.42 492.152 1633.31 493.992 1753.59 495.832C1799.85 496.562 1848.53 497.272 1899.18 496.442C2064.06 493.732 2096.82 360.422 2094.21 312.782C2094.16 311.842 2093.38 311.252 2092.56 311.252C2092.18 311.252 2091.8 311.372 2091.45 311.652ZM1721.34 175.722C1722.37 170.132 1724.07 164.872 1726.5 159.902C1729.16 154.292 1733 149.742 1738 146.212C1743.02 142.692 1749.67 140.932 1757.97 140.932C1766.27 140.932 1772.92 142.742 1777.92 146.402C1782.94 150.052 1786.64 154.652 1789.09 160.262C1791.28 165.262 1792.58 170.492 1793.01 175.892C1793.08 176.902 1792.26 177.782 1791.24 177.782H1723.09C1722 177.782 1721.16 176.762 1721.35 175.732M1712.74 107.572C1698.71 115.232 1687.26 126.642 1678.35 141.842C1669.44 157.022 1664.98 175.902 1664.98 198.542C1664.98 217.232 1668.63 234.132 1675.97 249.202C1683.3 264.272 1694.47 276.172 1709.47 284.912C1724.48 293.662 1743.58 298.042 1766.77 298.042C1780.42 298.042 1793.67 296.772 1806.49 294.202C1818.49 291.822 1827.44 289.252 1833.34 286.562C1834.05 286.212 1834.4 285.482 1834.28 284.702L1827.49 243.992C1827.33 242.932 1826.22 242.292 1825.21 242.712C1819.43 245.022 1812.2 247.002 1803.54 248.632C1793.9 250.472 1784.07 251.392 1774.07 251.392C1758.46 251.392 1746.02 248.092 1736.73 241.542C1728.01 235.362 1722.87 227.182 1721.24 216.932C1721.1 215.912 1721.95 214.932 1723.01 214.932H1843.14C1844.04 214.932 1844.76 214.272 1844.86 213.402C1845.05 210.852 1845.26 208.052 1845.48 204.912C1845.71 201.142 1845.83 197.702 1845.83 194.512C1845.83 172.892 1842.22 154.792 1835.01 140.192C1827.82 125.622 1817.64 114.632 1804.46 107.212C1791.28 99.8017 1775.54 96.0817 1757.24 96.0817C1741.61 96.0817 1726.78 99.9017 1712.73 107.562M1910.07 109.762C1895.32 118.882 1883.95 131.092 1876.03 146.392C1868.09 161.692 1864.13 178.592 1864.13 197.072C1864.13 215.552 1867.59 233.092 1874.57 248.282C1881.52 263.482 1892.39 275.572 1907.15 284.542C1921.9 293.542 1941 298.052 1964.43 298.052C1975.91 298.052 1986.4 297.062 1995.92 295.102C2004.81 293.312 2012.31 291.162 2018.43 288.712C2019.21 288.402 2019.61 287.632 2019.47 286.822L2012.37 245.782C2012.18 244.722 2011.09 244.132 2010.08 244.502C2004.26 246.762 1997.94 248.462 1991.15 249.542C1983.59 250.742 1976.49 251.382 1969.91 251.382C1957.7 251.382 1947.87 249.262 1940.44 244.992C1932.99 240.752 1927.68 234.552 1924.5 226.392C1921.34 218.262 1919.77 208.492 1919.77 197.062C1919.77 180.772 1923.73 167.642 1931.65 157.672C1939.57 147.722 1951.59 142.732 1967.72 142.732C1975.28 142.732 1982.12 143.482 1988.2 144.922C1993.62 146.222 1998.67 147.702 2003.31 149.372C2004.25 149.722 2005.24 149.182 2005.5 148.242L2016.01 108.112C2016.22 107.292 2015.8 106.392 2015 106.062C2007.38 102.952 1999.53 100.522 1991.5 98.8017C1982.97 96.9817 1973.56 96.0617 1963.31 96.0617C1942.56 96.0617 1924.81 100.632 1910.05 109.732M1582.54 45.3117L1533.2 53.2117C1532.35 53.3517 1531.74 54.0617 1531.74 54.9117V214.582C1531.74 231.102 1533.93 245.552 1538.31 257.952C1542.72 270.332 1550.45 279.992 1561.58 286.922C1572.69 293.852 1588.13 297.292 1607.9 297.292C1619.59 297.292 1629.47 296.352 1637.53 294.392C1645.05 292.552 1651.96 290.432 1658.18 287.982C1658.96 287.672 1659.38 286.872 1659.22 286.072L1652.17 247.132C1651.98 246.102 1650.94 245.512 1649.93 245.862C1645.31 247.492 1640.26 248.792 1634.8 249.752C1628.55 250.842 1622.54 251.402 1616.65 251.402C1608.61 251.402 1602.39 249.872 1598.01 246.822C1593.62 243.782 1590.56 239.422 1588.84 233.722C1587.14 228.022 1586.27 221.392 1586.27 213.822V148.102C1586.27 147.182 1587.07 146.402 1588.01 146.402H1650.1C1651.04 146.402 1651.82 145.652 1651.82 144.702V102.882C1651.82 101.962 1651.02 101.182 1650.1 101.182H1588.01C1587.07 101.182 1586.27 100.452 1586.27 99.4817V48.4917C1586.27 46.6717 1584.8 45.2617 1583.06 45.2617C1582.88 45.2617 1582.71 45.2917 1582.54 45.3117Z" fill="#1A5E9F"/>
<path d="M114.151 253.429C111.211 253.919 107.311 254.289 102.431 254.519C97.5406 254.769 92.4206 254.879 87.0506 254.879C77.0406 254.879 69.1706 253.239 63.4406 249.959C57.7006 246.679 54.8306 240.789 54.8306 232.269C54.8306 226.199 56.5406 221.579 59.9506 218.419C63.3706 215.259 67.8806 213.069 73.5006 211.859C79.1106 210.639 85.3406 210.039 92.1806 210.039C95.8406 210.039 99.8706 210.289 104.261 210.759C108.661 211.259 111.951 211.749 114.151 212.229V253.419V253.429ZM133.181 105.419C120.971 99.0992 104.141 95.9492 82.6606 95.9492C69.9706 95.9492 57.7006 96.9792 45.8606 99.0492C35.6406 100.839 27.4706 102.569 21.3406 104.259C19.7606 104.699 18.7706 106.249 19.0306 107.869L24.9406 145.039C25.2506 146.979 27.2106 148.199 29.0906 147.589C34.8806 145.749 41.5106 144.259 48.9706 143.159C57.9906 141.829 67.1506 141.159 76.4306 141.159C85.7106 141.159 93.0806 142.439 98.5806 144.989C104.081 147.539 108.041 151.059 110.481 155.559C112.921 160.059 114.141 165.459 114.141 171.779V176.879C110.711 175.919 106.261 175.129 100.781 174.509C95.2806 173.909 88.9906 173.599 81.9206 173.599C68.0106 173.599 54.8306 175.489 42.3806 179.249C29.9206 183.029 19.8606 189.279 12.1806 198.029C4.49062 206.769 0.640625 218.689 0.640625 233.749C0.640625 248.809 4.07062 261.689 10.9006 270.919C17.7306 280.169 27.3706 286.779 39.8206 290.789C52.2606 294.799 66.7806 296.799 83.3806 296.799C103.151 296.799 119.991 295.649 133.901 293.339C146.361 291.279 156.361 289.459 163.921 287.869C165.431 287.559 166.491 286.249 166.491 284.719V174.319C166.491 158.279 163.981 144.369 158.991 132.579C153.981 120.799 145.381 111.739 133.171 105.419" fill="#1A5E9F"/>
<path d="M319.531 224.809C316.111 233.189 311.111 239.699 304.521 244.309C297.931 248.929 289.631 251.239 279.621 251.239C274.741 251.239 270.231 251.059 266.081 250.689C261.921 250.329 258.511 249.899 255.821 249.409V150.629C259.231 148.439 263.691 146.619 269.181 145.159C274.681 143.689 280.221 142.969 285.851 142.969C292.441 142.969 298.121 144.069 302.871 146.249C307.621 148.439 311.661 151.719 314.951 156.109C318.251 160.469 320.671 165.939 322.271 172.499C323.861 179.059 324.661 186.719 324.661 195.469C324.661 206.649 322.951 216.429 319.531 224.809ZM342.231 109.439C329.781 101.179 314.411 97.0495 296.101 97.0495C288.541 97.0495 281.451 97.7695 274.871 99.2295C268.291 100.689 261.921 102.759 255.831 105.429V13.6895C255.831 11.7095 254.051 10.1995 252.081 10.5195L204.001 18.2295C202.431 18.4795 201.281 19.8295 201.281 21.4095V284.189C201.281 285.609 202.231 286.889 203.601 287.279C209.681 288.969 216.641 290.569 224.521 292.069C233.431 293.779 242.701 295.109 252.351 296.079C261.991 297.039 271.201 297.549 279.981 297.549C301.211 297.549 319.281 293.409 334.161 285.149C349.061 276.889 360.471 265.219 368.401 250.149C376.331 235.089 380.301 217.349 380.301 196.939C380.301 176.529 377.061 159.209 370.601 144.259C364.131 129.319 354.671 117.709 342.221 109.449" fill="#1A5E9F"/>
<path d="M508.442 253.429C505.502 253.919 501.602 254.289 496.722 254.519C491.832 254.769 486.712 254.879 481.342 254.879C471.332 254.879 463.462 253.239 457.732 249.959C451.992 246.679 449.122 240.789 449.122 232.269C449.122 226.199 450.832 221.579 454.252 218.419C457.672 215.259 462.172 213.069 467.802 211.859C473.412 210.639 479.622 210.039 486.472 210.039C490.132 210.039 494.162 210.289 498.552 210.759C502.952 211.259 506.252 211.749 508.442 212.229V253.419V253.429ZM527.472 105.419C515.262 99.0992 498.432 95.9492 476.952 95.9492C464.262 95.9492 452.002 96.9792 440.152 99.0492C429.932 100.839 421.762 102.569 415.632 104.259C414.052 104.699 413.062 106.249 413.322 107.869L419.232 145.039C419.542 146.979 421.502 148.199 423.382 147.589C429.172 145.749 435.802 144.259 443.262 143.159C452.282 141.829 461.442 141.159 470.722 141.159C480.002 141.159 487.372 142.439 492.872 144.989C498.372 147.539 502.332 151.059 504.772 155.559C507.212 160.059 508.432 165.459 508.432 171.779V176.879C505.002 175.919 500.552 175.129 495.072 174.509C489.572 173.909 483.282 173.599 476.212 173.599C462.302 173.599 449.122 175.489 436.672 179.249C424.212 183.029 414.152 189.279 406.462 198.029C398.772 206.769 394.922 218.689 394.922 233.749C394.922 248.809 398.342 261.689 405.182 270.919C412.012 280.169 421.662 286.779 434.102 290.789C446.542 294.799 461.062 296.799 477.662 296.799C497.432 296.799 514.272 295.649 528.192 293.339C540.642 291.279 550.642 289.459 558.202 287.869C559.702 287.559 560.762 286.249 560.762 284.719V174.319C560.762 158.279 558.252 144.369 553.262 132.579C548.252 120.799 539.652 111.739 527.442 105.419" fill="#1A5E9F"/>
<path d="M709.247 193.279C700.577 187.439 688.197 181.609 672.087 175.779C664.047 172.859 657.927 170.309 653.777 168.129C649.627 165.939 646.827 163.689 645.367 161.379C643.907 159.069 643.167 156.579 643.167 153.909C643.167 149.049 645.297 145.469 649.587 143.149C653.847 140.849 660.257 139.689 668.797 139.689C678.067 139.689 686.427 140.539 693.867 142.249C701.317 143.949 708.197 145.889 714.567 148.079L724.077 105.789C717.727 103.369 709.187 101.109 698.447 99.0392C687.717 96.9792 676.487 95.9492 664.777 95.9492C649.157 95.9492 635.717 98.3192 624.507 103.059C613.277 107.789 604.617 114.479 598.517 123.109C592.417 131.729 589.367 142.119 589.367 154.269C589.367 166.419 591.677 176.679 596.317 184.339C600.947 191.989 607.537 198.249 616.087 203.109C624.617 207.979 634.507 212.599 645.737 216.959C653.057 219.639 659.097 222.189 663.857 224.619C668.617 227.049 672.217 229.419 674.667 231.729C677.087 234.029 678.317 236.649 678.317 239.569C678.317 245.149 676.247 248.929 672.097 250.869C667.947 252.819 660.867 253.779 650.867 253.779C640.867 253.779 631.697 252.759 621.937 250.689C612.177 248.619 602.657 245.759 593.387 242.119L584.227 286.229C588.627 288.179 596.497 290.609 607.847 293.529C619.187 296.449 633.407 297.899 650.497 297.899C667.587 297.899 682.947 295.709 695.147 291.329C707.357 286.969 716.627 280.519 722.977 272.019C729.317 263.519 732.497 252.939 732.497 240.309C732.497 229.619 730.787 220.569 727.377 213.149C723.957 205.729 717.907 199.119 709.257 193.279" fill="#1A5E9F"/>
<path d="M880.569 246.268C876.399 247.638 871.879 248.738 867.029 249.598C860.799 250.688 854.759 251.238 848.909 251.238C840.849 251.238 834.639 249.728 830.229 246.678C825.829 243.638 822.789 239.268 821.079 233.548C819.369 227.848 818.519 221.228 818.519 213.688V146.248H880.819C882.599 146.248 884.049 144.818 884.049 143.038V104.268C884.049 102.488 882.599 101.048 880.819 101.048H818.519V48.3181C818.519 46.3381 816.729 44.8281 814.769 45.1381L766.679 52.8581C765.119 53.1081 763.969 54.4581 763.969 56.0381V214.418C763.969 230.948 766.159 245.408 770.549 257.798C774.939 270.188 782.679 279.848 793.789 286.768C804.899 293.708 820.329 297.168 840.109 297.168C851.819 297.168 861.699 296.188 869.759 294.238C876.829 292.538 883.329 290.558 889.269 288.288C890.709 287.738 891.529 286.228 891.259 284.718L884.719 248.748C884.369 246.828 882.409 245.658 880.559 246.268" fill="#1A5E9F"/>
<path d="M972.351 101.051H924.261C922.471 101.051 921.031 102.491 921.031 104.271V289.571C921.031 291.351 922.471 292.791 924.261 292.791H972.351C974.131 292.791 975.581 291.351 975.581 289.571V104.271C975.581 102.491 974.131 101.051 972.351 101.051Z" fill="#1A5E9F"/>
<path d="M948.486 6.26953C939.696 6.26953 932.066 9.12953 925.606 14.8395C919.136 20.5395 915.906 28.3895 915.906 38.3395C915.906 48.2895 919.136 56.1595 925.606 61.8595C932.066 67.5695 939.706 70.4195 948.486 70.4195C957.266 70.4195 964.896 67.5695 971.366 61.8595C977.836 56.1595 981.066 48.3095 981.066 38.3395C981.066 28.3695 977.836 20.5395 971.366 14.8395C964.896 9.12953 957.266 6.26953 948.486 6.26953Z" fill="#1A5E9F"/>
<path d="M1130.43 224.809C1127.01 233.189 1122.02 239.699 1115.42 244.309C1108.84 248.929 1100.53 251.239 1090.53 251.239C1085.65 251.239 1081.14 251.059 1076.98 250.689C1072.83 250.329 1069.42 249.899 1066.73 249.409V150.629C1070.14 148.439 1074.59 146.619 1080.09 145.159C1085.59 143.689 1091.13 142.969 1096.75 142.969C1103.34 142.969 1109.02 144.069 1113.77 146.249C1118.53 148.439 1122.56 151.719 1125.85 156.109C1129.14 160.469 1131.59 165.939 1133.17 172.499C1134.76 179.059 1135.56 186.719 1135.56 195.469C1135.56 206.649 1133.85 216.429 1130.43 224.809ZM1153.14 109.439C1140.69 101.179 1125.32 97.0495 1107.01 97.0495C1099.45 97.0495 1092.36 97.7695 1085.78 99.2295C1079.18 100.689 1072.83 102.759 1066.73 105.429V13.6895C1066.73 11.7095 1064.95 10.1995 1062.98 10.5195L1014.9 18.2295C1013.33 18.4795 1012.18 19.8295 1012.18 21.4095V284.189C1012.18 285.609 1013.12 286.889 1014.5 287.279C1020.56 288.969 1027.54 290.569 1035.42 292.069C1044.32 293.779 1053.6 295.109 1063.25 296.079C1072.89 297.039 1082.1 297.549 1090.88 297.549C1112.12 297.549 1130.18 293.409 1145.06 285.149C1159.95 276.889 1171.36 265.219 1179.29 250.149C1187.22 235.089 1191.19 217.349 1191.19 196.939C1191.19 176.529 1187.95 159.209 1181.49 144.259C1175.02 129.319 1165.56 117.709 1153.12 109.449" fill="#1A5E9F"/>
<path d="M1299.82 251.279C1288.83 250.009 1281.72 246.849 1278.52 241.749C1274.97 236.159 1273.22 228.509 1273.22 218.779V13.6892C1273.22 11.7092 1271.43 10.1992 1269.47 10.5092L1221.39 18.2292C1219.82 18.4692 1218.68 19.8292 1218.68 21.4092V229.719C1218.68 243.349 1220.69 255.059 1224.71 264.899C1228.74 274.739 1236.31 282.339 1247.41 287.689C1258.02 292.789 1273.11 295.679 1292.72 296.359C1294.34 296.409 1295.76 295.269 1296.03 293.679L1302.67 255.009C1302.98 253.199 1301.67 251.489 1299.84 251.279" fill="#1A5E9F"/>
<path d="M1373.89 177.601C1374.87 171.281 1376.69 165.331 1379.38 159.741C1382.07 154.151 1385.91 149.601 1390.91 146.071C1395.92 142.551 1402.57 140.791 1410.87 140.791C1419.17 140.791 1425.81 142.611 1430.82 146.261C1435.83 149.911 1439.54 154.531 1442 160.111C1444.44 165.701 1445.77 171.541 1446.03 177.611H1373.9L1373.89 177.601ZM1487.93 140.051C1480.73 125.461 1470.54 114.481 1457.36 107.061C1444.19 99.6514 1428.44 95.9414 1410.13 95.9414C1394.51 95.9414 1379.68 99.7714 1365.65 107.421C1351.62 115.071 1340.14 126.501 1331.24 141.691C1322.32 156.881 1317.87 175.771 1317.87 198.371C1317.87 217.091 1321.53 233.981 1328.86 249.041C1336.18 264.111 1347.35 276.011 1362.36 284.761C1377.36 293.511 1396.46 297.891 1419.65 297.891C1433.32 297.891 1446.56 296.611 1459.37 294.061C1470.62 291.821 1479.2 289.441 1485.08 286.921C1486.45 286.331 1487.21 284.901 1486.97 283.451L1480.71 245.711C1480.37 243.711 1478.3 242.531 1476.39 243.231C1470.89 245.261 1464.24 247.011 1456.44 248.501C1446.79 250.331 1436.97 251.231 1426.97 251.231C1411.35 251.231 1398.88 247.961 1389.62 241.391C1380.34 234.831 1375.09 225.971 1373.88 214.781H1494.64C1496.33 214.781 1497.73 213.491 1497.86 211.821C1498.02 209.661 1498.19 207.311 1498.36 204.761C1498.6 201.001 1498.73 197.541 1498.73 194.371C1498.73 172.741 1495.12 154.641 1487.92 140.051" fill="#1A5E9F"/>
</svg>
