<svg width="140" height="48" viewBox="0 0 140 48" fill="none" xmlns="http://www.w3.org/2000/svg"><path d="M9.30302 39.6187C9.71647 39.6187 10.0519 39.2817 10.0519 38.8653C10.0519 38.4494 9.71647 38.1115 9.30302 38.1115C8.8907 38.1115 8.55518 38.4494 8.55518 38.8653C8.55518 39.2817 8.8907 39.6187 9.30302 39.6187Z" fill="#3E3E3E"></path><path d="M67.2274 45.5238C67.6409 45.5238 67.9764 45.1866 67.9764 44.7708C67.9764 44.3543 67.6409 44.0166 67.2274 44.0166C66.8148 44.0166 66.48 44.3543 66.48 44.7708C66.48 45.1866 66.8148 45.5238 67.2274 45.5238Z" fill="#606060"></path><path d="M31.7941 40.9586L31.7938 40.956C31.792 40.1162 31.5005 39.4076 30.9713 38.929L30.934 38.8956L30.9256 38.8879H30.9237C30.4258 38.4604 29.7515 38.235 28.952 38.2273C28.949 38.2266 28.9422 38.2264 28.9346 38.2264C28.9273 38.2264 28.9198 38.2266 28.9122 38.2276L28.9065 38.2273C28.8825 38.2273 28.8664 38.228 28.8545 38.2285C28.8452 38.228 28.8302 38.2273 28.8127 38.2273L28.8006 38.2276C28.7945 38.2269 28.7868 38.2264 28.7771 38.2264H28.7742C28.775 38.2264 28.7728 38.2264 28.7701 38.2264C28.7659 38.2264 28.7605 38.2264 28.7546 38.2273C27.9569 38.236 27.2851 38.4607 26.7886 38.8879H26.7863L26.7408 38.929C26.2136 39.4055 25.922 40.1108 25.9182 40.9462L25.9171 40.9504L25.9131 45.2755C25.9131 45.3332 25.9376 45.3901 25.9806 45.4303C26.0239 45.4715 26.0842 45.4951 26.145 45.4951H26.9148C26.9753 45.4951 27.035 45.4715 27.0786 45.4303C27.1223 45.3901 27.1465 45.3332 27.1465 45.2755L27.1482 41.0964C27.1528 40.484 27.3094 40.0501 27.5922 39.7634C27.8659 39.4857 28.284 39.3287 28.8592 39.3177C29.429 39.3287 29.8462 39.4857 30.1203 39.7634C30.4027 40.0501 30.5593 40.484 30.5642 41.0976L30.563 45.2755C30.563 45.3332 30.5877 45.3901 30.6309 45.4303C30.6741 45.4715 30.7343 45.4951 30.7951 45.4951H31.5659C31.6267 45.4951 31.6865 45.4715 31.7299 45.4303C31.774 45.3901 31.798 45.3332 31.798 45.2755L31.7941 40.9586Z" fill="#232323"></path><path d="M58.6351 40.9586L58.6348 40.956C58.633 40.1162 58.3417 39.4076 57.8123 38.929L57.775 38.8956L57.7664 38.8879C57.2686 38.4604 56.5925 38.235 55.793 38.2273C55.79 38.2266 55.7833 38.2264 55.7756 38.2264C55.7683 38.2264 55.7608 38.2266 55.7534 38.2276L55.7475 38.2273C55.7235 38.2273 55.7074 38.228 55.6957 38.2285C55.6862 38.228 55.6712 38.2273 55.6537 38.2273L55.6416 38.2276C55.6355 38.2269 55.6279 38.2264 55.6181 38.2264H55.6152C55.6164 38.2264 55.6138 38.2264 55.6111 38.2264C55.6071 38.2264 55.6015 38.2264 55.5956 38.2273C54.7979 38.236 54.1261 38.4607 53.6296 38.8879H53.6272L53.5818 38.929C53.0546 39.4055 52.7632 40.1108 52.7593 40.9462L52.7581 40.9504L52.7539 45.2755C52.7539 45.3332 52.7786 45.3901 52.8216 45.4303C52.8649 45.4715 52.9252 45.4951 52.986 45.4951H53.7556C53.8165 45.4951 53.876 45.4715 53.9198 45.4303C53.9633 45.3901 53.9873 45.3332 53.9873 45.2755L53.9891 41.0964C53.9938 40.484 54.1504 40.0501 54.433 39.7634C54.7071 39.4857 55.125 39.3287 55.7004 39.3177C56.27 39.3287 56.6874 39.4857 56.9613 39.7634C57.2435 40.0501 57.4003 40.484 57.4052 41.0976L57.404 45.2755C57.404 45.3332 57.4287 45.3901 57.4717 45.4303C57.5151 45.4715 57.5753 45.4951 57.6361 45.4951H58.4071C58.4677 45.4951 58.5275 45.4715 58.5709 45.4303C58.6148 45.3901 58.6388 45.3332 58.6388 45.2755L58.6351 40.9586Z" fill="#232323"></path><path d="M44.2427 41.8807V41.8959V41.9136C44.2407 42.6024 44.1676 43.2754 43.9056 43.7572C43.6482 44.2206 43.2341 44.53 42.43 44.5422C42.4247 44.5417 42.4162 44.5417 42.4001 44.5422H42.3866C41.5772 44.534 41.1576 44.2241 40.8989 43.7563C40.6347 43.2728 40.5608 42.5942 40.5608 41.901V41.8594C40.5615 41.1707 40.6347 40.6183 40.8989 40.1369C41.1576 39.6691 41.5772 39.3585 42.3866 39.3511H42.3922H42.4053H42.4177C43.2276 39.3585 43.6457 39.6684 43.9065 40.1377C44.169 40.6183 44.2427 41.1707 44.2427 41.8594V41.8807ZM44.4705 38.9649C44.4663 38.96 44.4623 38.9549 44.4567 38.95C44.0181 38.5456 43.3171 38.2952 42.5049 38.2943C42.4939 38.2927 42.4769 38.2927 42.461 38.2927C41.793 38.2926 41.1341 38.4322 40.5615 38.9224L40.5608 38.4926L40.562 36.3132C40.562 36.2556 40.5374 36.1991 40.4941 36.1588C40.4511 36.118 40.3909 36.0944 40.33 36.0944H39.5714C39.511 36.0944 39.4511 36.118 39.4074 36.1588C39.3636 36.1991 39.3398 36.2556 39.3398 36.3132V38.4926L39.3404 43.1195L39.3398 45.287C39.3398 45.3446 39.3647 45.4011 39.4074 45.441C39.4508 45.4821 39.511 45.5056 39.5719 45.5056H40.3303C40.3909 45.5056 40.4507 45.4821 40.4941 45.441C40.5382 45.4011 40.5622 45.3446 40.5622 45.287V44.839C41.0685 45.405 41.7949 45.5999 42.461 45.5997H42.508C43.3185 45.5971 44.0197 45.3467 44.4567 44.9428C45.2739 44.1691 45.4608 42.9834 45.4633 41.8811C45.461 40.7845 45.2739 39.7356 44.4705 38.9649Z" fill="#232323"></path><path d="M23.7817 42.8675C23.78 43.4461 23.6533 43.7658 23.4832 43.9147C23.073 44.2934 22.5649 44.3503 21.9463 44.3513H21.9395H21.9279C21.3322 44.3522 20.9406 44.2488 20.7187 44.0881C20.5078 43.9355 20.399 43.7176 20.3937 43.3426V43.3257C20.3977 42.9534 20.5108 42.7212 20.7239 42.5576C20.9471 42.3878 21.3228 42.2776 21.8852 42.2776H21.8901H23.7817V42.8675ZM25.0552 40.638V40.633C25.0555 39.8996 24.8116 39.2708 24.3001 38.8506C23.7849 38.4275 23.0455 38.2287 22.0937 38.2283H22.0594H22.0464C21.0472 38.2254 20.2532 38.4431 19.6489 39.0862L19.6465 39.0837L19.612 39.1252C19.5665 39.1756 19.5219 39.2274 19.4788 39.2829C19.4788 39.2829 19.4779 39.2841 19.4776 39.2846L19.4158 39.3579C19.3787 39.4017 19.3607 39.4607 19.3682 39.5198C19.3747 39.5797 19.405 39.6369 19.451 39.6764L19.4858 39.7067C19.4993 39.7228 19.514 39.7377 19.5304 39.7515L19.6655 39.8623L20.0252 40.1734C20.0712 40.2137 20.1319 40.2352 20.1907 40.2321C20.2492 40.2298 20.3043 40.2032 20.341 40.1591L20.572 39.8849C20.7159 39.7286 20.8636 39.6178 21.0421 39.5398C21.2943 39.429 21.618 39.3774 22.0856 39.373H22.0912L22.107 39.3721C22.772 39.3737 23.1858 39.509 23.4228 39.7169C23.659 39.9216 23.7791 40.2307 23.7808 40.7114C23.7808 40.7145 23.7808 40.7231 23.7817 40.7339V41.1872H21.8068C21.0102 41.1889 20.3438 41.369 19.8629 41.7442C19.3854 42.111 19.119 42.6757 19.1187 43.3335L19.119 43.3584C19.1201 43.9065 19.326 44.4441 19.7002 44.8173C20.2058 45.3156 20.879 45.4965 21.8964 45.4965H21.9078H22.4234C23.3551 45.4974 24.0234 45.2671 24.4539 44.803C24.8835 44.3387 25.0555 43.6674 25.0555 42.8327V40.6506L25.0552 40.638Z" fill="#232323"></path><path d="M47.2428 43.351V43.3341C47.2467 42.9624 47.3597 42.7301 47.5729 42.5669C47.7962 42.3968 48.1719 42.2869 48.7342 42.2869H48.7393H50.6308V42.8763C50.6289 43.4545 50.5024 43.7738 50.3321 43.9231C49.9219 44.3011 49.4141 44.358 48.7951 44.3595H48.7883H48.7771C48.1808 44.3601 47.7897 44.2568 47.5678 44.0958C47.3566 43.9436 47.2481 43.726 47.2428 43.351ZM51.9043 40.648V40.6431C51.9047 39.9101 51.6607 39.2818 51.149 38.8618C50.6343 38.439 49.8946 38.2402 48.9431 38.2399H48.9085H48.8955C47.8959 38.2374 47.1023 38.4546 46.4982 39.0972L46.4956 39.0951L46.4611 39.1364C46.4156 39.1866 46.371 39.2388 46.3276 39.2939C46.3272 39.2946 46.3271 39.2951 46.3267 39.2956L46.2647 39.369C46.2278 39.4127 46.2096 39.4717 46.2173 39.5308C46.2238 39.5903 46.2539 39.6476 46.2999 39.6875L46.3349 39.7177C46.3484 39.7335 46.3631 39.7485 46.3794 39.7622L46.5146 39.8731L46.8743 40.1839C46.9203 40.2238 46.9809 40.2455 47.0397 40.2426C47.0983 40.2401 47.153 40.2135 47.19 40.1696L47.4208 39.8957C47.5648 39.7396 47.7125 39.6285 47.8912 39.5504C48.1434 39.44 48.4671 39.388 48.9346 39.3838L48.9402 39.3837L48.9559 39.383C49.6211 39.3845 50.0348 39.52 50.2717 39.7275C50.5082 39.9319 50.6277 40.2412 50.6298 40.7213C50.6298 40.7247 50.6298 40.7331 50.6308 40.7439V41.1972H48.656C47.8592 41.1989 47.1929 41.3786 46.7121 41.7537C46.2343 42.1203 45.9681 42.6848 45.9678 43.3421L45.9681 43.3671C45.9692 43.9149 46.175 44.4519 46.5493 44.8249C47.0547 45.3227 47.7281 45.5038 48.7454 45.5038H48.7568H49.2725C50.2042 45.5045 50.8723 45.2744 51.3028 44.8103C51.7325 44.3468 51.9047 43.676 51.9047 42.8416V40.6608L51.9043 40.648Z" fill="#232323"></path><path d="M13.1907 38.2537H11.8899L11.8894 36.9353L11.8885 36.2973C11.8885 36.1828 11.7882 36.0894 11.6645 36.0894H10.8824C10.8234 36.0894 10.7653 36.1112 10.7243 36.1501C10.6823 36.1889 10.6577 36.243 10.6577 36.2973V37.4729L10.6583 43.6533C10.6589 44.1553 10.8034 44.6074 11.1213 44.9498C11.4242 45.2811 11.9151 45.4879 12.4823 45.4879H12.4844H12.8611V45.4832H13.1907C13.2481 45.4832 13.3039 45.4582 13.344 45.415C13.3846 45.3716 13.4078 45.3112 13.4078 45.2494V44.4856C13.4078 44.4245 13.3846 44.3641 13.344 44.3205C13.3039 44.2766 13.2481 44.2521 13.1907 44.2521H12.5862C12.4637 44.2474 12.3655 44.2325 12.28 44.2022C12.2254 44.1835 12.1916 44.1623 12.1603 44.1424C12.1256 44.1181 12.1065 44.1063 12.0726 44.071C11.9562 43.9492 11.8918 43.7565 11.8899 43.4693V39.4852H13.1907C13.2481 39.4852 13.3039 39.4602 13.344 39.4168C13.3846 39.373 13.4078 39.3126 13.4078 39.2514V38.4872C13.4078 38.4263 13.3846 38.3661 13.344 38.3221C13.3039 38.278 13.2481 38.2537 13.1907 38.2537Z" fill="#232323"></path><path d="M18.8 39.1563L18.7279 39.076C18.7249 39.0666 18.7196 39.0578 18.7109 39.0487L18.6671 39.0039L18.6073 38.9416L18.5579 38.8868L18.556 38.889C18.1134 38.4233 17.5627 38.2271 16.9763 38.2264C16.9642 38.2264 16.95 38.2268 16.9303 38.2271C16.5138 38.2271 16.0222 38.4142 15.7273 38.7693L15.524 39.0106V38.9098V38.4711C15.524 38.4135 15.4995 38.357 15.4562 38.3171C15.4128 38.2759 15.3528 38.2525 15.2917 38.2525H14.5336C14.4727 38.2525 14.4129 38.2759 14.3695 38.3171C14.3259 38.357 14.3018 38.4135 14.3018 38.4711V38.9098V45.2786C14.3018 45.3366 14.3264 45.3929 14.3695 45.433C14.4125 45.4741 14.4727 45.4976 14.5336 45.4976H14.6645C14.6686 45.4977 14.6729 45.4988 14.6771 45.4988H15.1547C15.1593 45.4988 15.1633 45.4977 15.1677 45.4976H15.2921C15.3528 45.4976 15.4125 45.4741 15.4562 45.433C15.5 45.3929 15.524 45.3366 15.524 45.2786V45.1609C15.524 45.1595 15.5243 45.1579 15.5243 45.1565V41.1175C15.5243 41.1123 15.524 41.1074 15.524 41.102V40.7751C15.5469 40.3997 15.6659 40.0616 15.8614 39.8161C16.0707 39.5541 16.3774 39.3838 16.7911 39.3826C17.0102 39.3826 17.1543 39.4089 17.2789 39.4607C17.3991 39.5132 17.5218 39.6029 17.6826 39.769L17.719 39.8065L17.8838 39.99C17.9225 40.0334 17.9792 40.059 18.0387 40.0595C18.0984 40.0607 18.1591 40.0373 18.205 39.9956L18.7734 39.4783C18.8187 39.437 18.8477 39.3786 18.8528 39.3179C18.8586 39.258 18.8386 39.1994 18.8 39.1563Z" fill="#232323"></path><path d="M37.9069 41.7734C37.9038 41.771 37.9003 41.7694 37.8976 41.7673C37.4549 41.4581 36.8933 41.3505 36.2896 41.299L35.1577 41.2036C34.6867 41.1641 34.3948 41.0661 34.2253 40.9329C34.0816 40.8234 33.9925 40.6465 33.9899 40.3747V40.3686V40.3544C33.9925 40.0327 34.1175 39.7991 34.3395 39.6404C34.5761 39.4696 34.9555 39.3609 35.4921 39.3602H35.4966C36.1814 39.3614 36.7484 39.5212 37.2209 39.8248L37.5074 40.0271C37.5532 40.0595 37.6119 40.0714 37.668 40.0583C37.7253 40.0459 37.7772 40.0105 37.8112 39.9612L38.234 39.3448C38.2681 39.2953 38.2828 39.233 38.2746 39.1752C38.2702 39.1432 38.2578 39.1135 38.2403 39.0872C38.2247 39.0573 38.2025 39.0305 38.1731 39.0095L38.1244 38.9747C37.4496 38.4936 36.5085 38.224 35.4942 38.2226C34.682 38.2227 33.989 38.418 33.4861 38.792C32.9873 39.1597 32.694 39.7158 32.6937 40.3486L32.694 40.3574V40.3616L32.6937 40.3785C32.6937 40.938 32.901 41.4324 33.3151 41.7694C33.7333 42.1115 34.322 42.2939 35.0637 42.3537L36.2271 42.4479C36.6534 42.4869 36.9201 42.5816 37.0769 42.713C37.2139 42.8241 37.3012 43.0003 37.3021 43.2814V43.2966V43.2989C37.299 43.6531 37.1563 43.8974 36.8902 44.067C36.6044 44.2481 36.1399 44.359 35.4942 44.359H35.4898C35.4875 44.359 35.4833 44.3594 35.4777 44.3599H35.472C34.6201 44.3557 34.0146 44.1643 33.5431 43.7749L33.2978 43.5673C33.2538 43.5299 33.1954 43.5124 33.1366 43.5203C33.0776 43.528 33.0213 43.5591 32.9822 43.6062L32.495 44.1951C32.4558 44.2423 32.4354 44.3041 32.4389 44.3639C32.4415 44.4232 32.4688 44.4789 32.5127 44.516L32.7439 44.7115C32.7486 44.715 32.7523 44.719 32.7568 44.7227L32.7869 44.7479L32.789 44.7456C33.5043 45.2634 34.3968 45.5112 35.4898 45.5112H35.5092C36.4103 45.5103 37.1707 45.315 37.7256 44.932C38.2739 44.5543 38.601 43.9714 38.6001 43.2989V43.2655C38.6011 42.5875 38.3385 42.0764 37.9069 41.7734Z" fill="#232323"></path><path d="M65.8311 45.1927L64.882 43.8535L62.9807 41.0769L64.4584 39.5076L65.3188 38.5983L65.371 38.5402C65.4704 38.4401 65.4217 38.3361 65.3785 38.2961C65.3355 38.2551 65.2753 38.2315 65.2144 38.2315H64.2265C64.1677 38.2315 64.0916 38.2768 64.0483 38.3151C64.0492 38.315 64.0475 38.3155 64.0483 38.3151L60.7309 41.8536V38.8967V36.2874C60.7309 36.23 60.7058 36.1733 60.663 36.1331C60.6196 36.0921 60.5595 36.0687 60.4985 36.0687H59.7402C59.6795 36.0687 59.6196 36.0921 59.5764 36.1331C59.5323 36.1733 59.5083 36.23 59.5083 36.2874V38.8967V45.2778C59.5083 45.3352 59.533 45.3922 59.576 45.4325C59.6194 45.4731 59.6795 45.4969 59.7405 45.4969H60.4988C60.5595 45.4969 60.6194 45.4731 60.663 45.4325C60.7069 45.3922 60.7309 45.3352 60.7309 45.2778V43.4629L62.168 41.9052L63.1352 43.3526H63.1312L64.4909 45.3849C64.5228 45.43 64.573 45.5016 64.6864 45.5016H65.6744C65.7355 45.5016 65.7955 45.4778 65.8388 45.4367C65.8818 45.3966 65.9103 45.2928 65.8311 45.1927Z" fill="#232323"></path><path d="M57.3379 36.1375H57.4718L57.6709 36.7237L57.8702 36.1375H58.0027V36.831H57.9135V36.4208C57.9135 36.4065 57.9142 36.3848 57.9142 36.3508C57.9142 36.3177 57.9161 36.2843 57.9161 36.246L57.7173 36.831H57.6237L57.4252 36.246V36.2665V36.3436C57.4266 36.3802 57.4266 36.4052 57.4266 36.4208V36.831H57.3379V36.1375Z" fill="#232323"></path><path d="M58.7105 36.4546C58.7527 36.4546 58.787 36.4462 58.8131 36.4283C58.836 36.4122 58.85 36.3802 58.85 36.3324C58.85 36.2843 58.8334 36.2498 58.797 36.2316C58.7779 36.2218 58.7527 36.2175 58.7226 36.2175H58.4979V36.4546H58.7105ZM58.4043 36.1375H58.721C58.773 36.1375 58.8166 36.1448 58.8488 36.1606C58.9134 36.1891 58.9447 36.2437 58.9447 36.3237C58.9447 36.365 58.9377 36.3991 58.9198 36.4261C58.9013 36.4516 58.8777 36.4744 58.8463 36.4903C58.8736 36.502 58.8959 36.5155 58.9093 36.5333C58.9219 36.5512 58.9296 36.5815 58.9296 36.6217L58.9349 36.7131C58.9349 36.7407 58.9384 36.76 58.941 36.7732C58.9475 36.7937 58.9571 36.8081 58.9718 36.814V36.831H58.8569C58.8535 36.8236 58.8521 36.8166 58.8488 36.8081C58.8463 36.7984 58.8456 36.7802 58.8451 36.7533L58.8386 36.6371C58.8353 36.5911 58.8204 36.5606 58.7896 36.5458C58.773 36.5374 58.7435 36.5333 58.7063 36.5333H58.4979V36.831H58.4043V36.1375Z" fill="#232323"></path><path d="M58.216 36.847C58.184 36.847 58.1621 36.8234 58.1621 36.7868C58.1621 36.7505 58.1847 36.7256 58.2193 36.7256C58.2519 36.7256 58.2753 36.7505 58.2753 36.7868C58.2753 36.8234 58.2519 36.847 58.216 36.847Z" fill="#232323"></path><path d="M59.1659 36.847C59.1329 36.847 59.1089 36.8234 59.1089 36.7868C59.1089 36.7505 59.1329 36.7256 59.1671 36.7256C59.2018 36.7256 59.2244 36.7505 59.2244 36.7868C59.2244 36.8234 59.2012 36.847 59.1659 36.847Z" fill="#232323"></path><path d="M73.894 18.7623V18.808V18.8131V18.8609C73.8881 20.9188 73.6698 22.9295 72.8871 24.3687C72.1176 25.7533 70.8807 26.678 68.4781 26.7147C68.4625 26.7125 68.4368 26.7125 68.3883 26.7147H68.3486C65.9298 26.6904 64.6768 25.7636 63.9034 24.3664C63.1142 22.9215 62.8928 20.8938 62.8928 18.8234V18.6985C62.8951 16.6412 63.1142 14.9904 63.9034 13.5521C64.6768 12.1543 65.9298 11.2268 68.3486 11.2045H68.3649H68.4046H68.4412C70.8616 11.2268 72.1102 12.1529 72.89 13.5551C73.6735 14.9904 73.894 16.6412 73.894 18.6985V18.7623ZM74.5746 10.0508C74.5622 10.0361 74.5497 10.0207 74.5335 10.006C73.2238 8.79763 71.129 8.04952 68.7014 8.04724C68.669 8.04287 68.6185 8.04287 68.5714 8.04287C66.5752 8.04217 64.6061 8.45884 62.8951 9.92357L62.8928 9.92514V8.63961H62.8967V2.12778C62.8967 1.95594 62.8232 1.78671 62.6944 1.66701C62.5657 1.54487 62.3865 1.47452 62.2035 1.47452H59.9369C59.7566 1.47452 59.5781 1.54487 59.4472 1.66701C59.3172 1.78671 59.2451 1.95594 59.2451 2.12778V8.63961L59.2467 22.4637L59.2451 28.9402C59.2451 29.1122 59.3195 29.2812 59.4472 29.4002C59.5774 29.5229 59.7566 29.5929 59.939 29.5929H62.2042C62.3865 29.5929 62.565 29.5229 62.6944 29.4002C62.826 29.2812 62.8981 29.1122 62.8981 28.9402V27.6011C64.4099 29.2923 66.5802 29.875 68.5714 29.8743H68.711C71.1327 29.8663 73.2274 29.1182 74.5335 27.9112C76.975 25.5997 77.5329 22.0565 77.541 18.763C77.5343 15.4874 76.975 12.3534 74.5746 10.0508Z" fill="#606060"></path><path d="M94.7724 19.2026C94.7724 21.2597 94.5519 22.9105 93.7684 24.3458C92.9886 25.7482 91.7399 26.6743 89.3196 26.6962H89.2829H89.2433H89.227C86.8082 26.6743 85.555 25.7467 84.7819 24.3488C83.9924 22.9105 83.7735 21.2597 83.7712 19.2026V19.0777C83.7712 17.0073 83.9924 14.9794 84.7819 13.5345C85.555 12.1373 86.8082 11.2105 89.227 11.1863H89.2666C89.3152 11.1884 89.3408 11.1884 89.3564 11.1863C91.7591 11.2229 92.996 12.1476 93.7655 13.5324C94.5482 14.9714 94.7665 16.9823 94.7724 19.0402V19.088V19.0931V19.1386V19.2026ZM95.453 27.8501C97.8533 25.5475 98.4128 22.4137 98.4194 19.1379C98.4114 15.8444 97.8533 12.3012 95.4119 9.9897C94.1059 8.78292 92.0111 8.03463 89.5893 8.02658H89.4496C87.4587 8.02588 85.2883 8.6088 83.7765 10.3V8.96072C83.7765 8.7887 83.7044 8.61982 83.5728 8.50065C83.4435 8.37798 83.265 8.30815 83.0826 8.30815H80.8174C80.6351 8.30815 80.4559 8.37798 80.3257 8.50065C80.1977 8.61982 80.1235 8.7887 80.1235 8.96072V15.4374L80.1249 29.2613L80.1235 35.7731C80.1235 35.9452 80.1956 36.1142 80.3257 36.2339C80.4566 36.3559 80.6351 36.4266 80.8151 36.4266H83.0819C83.265 36.4266 83.4442 36.3559 83.5728 36.2339C83.7014 36.1142 83.7749 35.9452 83.7749 35.7731V29.2613H83.7712V27.976L83.7735 27.9774C85.4845 29.4421 87.4536 29.8589 89.4496 29.8581C89.4967 29.8581 89.5475 29.8581 89.5798 29.8537C92.0074 29.8516 94.102 29.1033 95.4119 27.8951C95.428 27.8804 95.4404 27.8648 95.453 27.8501Z" fill="#606060"></path><path d="M127.972 31.5703C127.773 32.1101 127.415 32.9814 127.177 33.505C127.177 33.505 126.745 34.4539 126.135 35.066C125.576 35.6242 124.938 36.0098 124.219 36.2231C123.501 36.4357 123.029 36.469 123.029 36.469C122.454 36.5087 121.616 36.5419 121.167 36.5419C120.717 36.5419 120.348 36.0708 120.348 35.4958V33.9576C120.348 33.3823 120.582 32.9113 120.868 32.9113C121.153 32.9113 121.855 32.8624 122.427 32.8035C122.427 32.8035 122.863 32.7576 123.262 32.4519C123.661 32.1448 123.863 31.7047 123.863 31.7047C124.103 31.1811 124.456 30.309 124.648 29.7664L125.067 28.5834C125.259 28.0407 125.254 27.1545 125.057 26.6141L118.714 9.27767C118.516 8.7371 118.825 8.29471 119.401 8.29471H121.617C122.192 8.29471 122.815 8.74078 122.999 9.28572L127.155 21.5471C127.34 22.0927 127.638 22.0913 127.819 21.5448L131.87 9.28869C132.051 8.74148 132.67 8.29471 133.246 8.29471H135.501C136.077 8.29471 136.385 8.7364 136.186 9.27679L127.972 31.5703Z" fill="#606060"></path><path d="M103.821 23.3373V23.2872C103.833 22.1902 104.167 21.5045 104.797 21.0219C105.455 20.5202 106.564 20.1956 108.226 20.1956H108.24H113.826V21.9359C113.82 23.643 113.446 24.5866 112.944 25.0269C111.733 26.143 110.233 26.311 108.405 26.3156H108.385H108.352C106.592 26.317 105.436 26.0128 104.781 25.5368C104.157 25.0874 103.837 24.445 103.821 23.3373ZM117.586 15.3565V15.3413C117.587 13.1773 116.867 11.3218 115.356 10.0816C113.836 8.83315 111.652 8.24673 108.842 8.24516H108.74H108.702C105.749 8.23746 103.407 8.87917 101.622 10.7763L101.615 10.7702L101.513 10.8927C101.379 11.0404 101.247 11.1947 101.119 11.3573C101.118 11.3589 101.117 11.3612 101.116 11.3627L100.934 11.579C100.824 11.7085 100.77 11.8825 100.793 12.0573C100.812 12.233 100.901 12.4017 101.037 12.5196L101.14 12.6089C101.18 12.6558 101.224 12.6997 101.272 12.7398L101.671 13.0676L102.733 13.9854C102.869 14.1034 103.048 14.1676 103.221 14.1587C103.395 14.1518 103.556 14.0731 103.666 13.9431L104.347 13.1341C104.772 12.674 105.208 12.3457 105.736 12.1149C106.48 11.7887 107.436 11.6359 108.817 11.623L108.834 11.6223L108.88 11.6207C110.844 11.6252 112.066 12.0247 112.766 12.6385C113.463 13.2415 113.817 14.1548 113.823 15.573C113.823 15.5819 113.823 15.6076 113.826 15.6395V16.9774H107.995C105.641 16.9826 103.674 17.5139 102.254 18.6209C100.844 19.7036 100.057 21.3698 100.056 23.3116L100.057 23.3849C100.061 25.0027 100.668 26.588 101.774 27.6898C103.266 29.16 105.255 29.6942 108.259 29.6942H108.292H109.814C112.566 29.6972 114.539 29.017 115.811 27.6473C117.079 26.2785 117.587 24.2966 117.587 21.8337V15.3936L117.586 15.3565Z" fill="#606060"></path><path d="M35.8327 8.336C35.2311 8.336 34.6053 8.80972 34.4409 9.38756L30.4793 23.36C30.3151 23.9389 30.0269 23.9449 29.8388 23.3735L25.2312 9.37443C25.0438 8.80342 24.398 8.336 23.7964 8.336H22.97C22.3686 8.336 21.7239 8.80359 21.5371 9.37531L16.966 23.3726C16.7792 23.9444 16.4907 23.9398 16.3256 23.3611L12.3285 9.38773C12.1629 8.80919 11.5352 8.336 10.9334 8.336H9.24996C8.649 8.336 8.30561 8.80499 8.48696 9.37828L14.6005 28.6598C14.7825 29.2322 15.4228 29.7021 16.0246 29.7021H17.1809C17.7178 29.7021 18.2965 29.2856 18.4669 28.7767L23.0371 15.1383C23.2283 14.5682 23.5418 14.5682 23.7344 15.1376L28.3026 28.666C28.4957 29.2354 29.1453 29.7021 29.7462 29.7021H30.8653C31.4222 29.7021 32.0149 29.2676 32.1822 28.7361L38.2808 9.37898C38.4614 8.80499 38.1173 8.336 37.5162 8.336L35.8327 8.336Z" fill="#606060"></path><path d="M56.6547 18.3444C56.6547 12.0029 53.2898 8.06332 47.8737 8.06332C42.3757 8.06332 39.0933 12.1254 39.0933 18.9287C39.0933 25.9349 42.4041 29.794 48.4157 29.794C52.1497 29.794 54.1529 28.5414 56.1748 26.5207L56.4436 26.2517L53.8633 23.9865L53.6268 24.2222C51.9794 25.8697 50.6373 26.4531 48.4993 26.4531C44.9393 26.4531 42.9228 24.1904 42.8139 20.0776H56.6547V18.3444ZM42.8288 17.1123C42.9039 15.7828 43 15.1878 43.4065 14.1889C44.1539 12.4197 45.8656 11.3209 47.8737 11.3209C49.8817 11.3209 51.593 12.4188 52.3399 14.186C52.7476 15.1878 52.8434 15.7828 52.9188 17.1123H42.8288Z" fill="#606060"></path><path d="M3.92187 12.7608C5.12206 12.7608 6.09663 11.7812 6.09663 10.5728C6.09663 9.36446 5.12206 8.38412 3.92187 8.38412C2.72452 8.38412 1.75 9.36446 1.75 10.5728C1.75 11.7812 2.72452 12.7608 3.92187 12.7608Z" fill="#232323"></path><path d="M136.075 29.6897C137.276 29.6897 138.25 28.7098 138.25 27.5024C138.25 26.2933 137.276 25.3121 136.075 25.3121C134.877 25.3121 133.905 26.2933 133.905 27.5024C133.905 28.7098 134.877 29.6897 136.075 29.6897Z" fill="#232323"></path></svg>