<svg xmlns="http://www.w3.org/2000/svg" id="Capa_1" viewBox="0 0 443.91 124"><defs><style> .st0 { fill: #80bc00; } .st1 { fill: #fff; } </style></defs><path class="st1" d="M168.96,82.77c-6.23.47-11.52-.39-15.88-2.57-6.54-3.27-9.81-9.03-9.81-17.29.16-6.38,2.34-11.21,6.54-14.48,4.21-3.27,11.13-5.37,20.79-6.31,6.85-.78,10.28-2.88,10.28-6.31-.31-3.58-3.74-5.37-10.28-5.37-5.61,0-8.8,1.48-9.58,4.44h-15.88c1.87-11.68,10.12-17.52,24.76-17.52,17.44,0,26.32,5.84,26.63,17.52v21.49c0,10.75-3.89,18.22-11.68,22.43-4.2,2.18-9.5,3.5-15.88,3.97h0ZM168.49,53.57c-6.39,1.25-9.58,4.21-9.58,8.88.31,4.98,2.96,7.48,7.94,7.48,4.36,0,7.86-1.25,10.51-3.74,2.49-2.49,3.74-6,3.74-10.51v-5.84c-3.74,1.56-7.94,2.8-12.61,3.74h0Z"></path><path class="st1" d="M260.06,62.22c-1.56,7.01-4.59,12.15-9.11,15.42-4.98,3.74-10.9,5.53-17.75,5.37-19.16,0-28.97-10.9-29.43-32.7,0-21.65,9.73-32.63,29.2-32.94,15.26,0,24.29,6.85,27.1,20.56h-17.29c-1.87-4.36-5.29-6.54-10.28-6.54-8.41,0-12.61,6.31-12.61,18.92s4.44,18.84,13.31,18.69c3.74,0,6.93-1.48,9.58-4.44,1.56-1.56,3.35-2.34,5.37-2.34h11.91Z"></path><path class="st1" d="M277.23,80.79c-6-.55-8.92-4.32-8.76-11.33V.32h8.18c2.02,0,3.82.78,5.37,2.34,1.56,1.56,2.34,3.43,2.34,5.61v10.04h9.58v3.5c0,2.34-.78,4.24-2.34,5.72s-3.43,2.22-5.61,2.22h-1.64v35.04c0,2.65,1.56,3.97,4.67,3.97h4.91v12.15c-5.14.47-10.71.43-16.7-.12Z"></path><path class="st1" d="M311.22.31c5.29,0,7.86,2.57,7.71,7.71v4.67h-15.88V.31h8.18-.01ZM311.22,18.3c5.14,0,7.71,2.57,7.71,7.71v55.6h-15.88V18.31h8.18-.01Z"></path><path class="st1" d="M349.07,81.6l-22.19-63.3h17.52l12.85,44.38,10.98-38.78c1.25-3.74,3.82-5.61,7.71-5.61h12.38l-22.43,63.3h-16.82Z"></path><path class="st1" d="M416.34,82.77c-6.23.47-11.52-.39-15.88-2.57-6.54-3.27-9.81-9.03-9.81-17.29.16-6.38,2.34-11.21,6.54-14.48,4.21-3.27,11.13-5.37,20.79-6.31,6.85-.78,10.28-2.88,10.28-6.31-.31-3.58-3.74-5.37-10.28-5.37-5.61,0-8.8,1.48-9.58,4.44h-15.88c1.87-11.68,10.12-17.52,24.76-17.52,17.44,0,26.32,5.84,26.63,17.52v21.49c0,10.75-3.89,18.22-11.68,22.43-4.2,2.18-9.5,3.5-15.88,3.97h-.01ZM415.88,53.57c-6.39,1.25-9.58,4.21-9.58,8.88.31,4.98,2.96,7.48,7.94,7.48,4.36,0,7.86-1.25,10.51-3.74,2.49-2.49,3.74-6,3.74-10.51v-5.84c-3.74,1.56-7.94,2.8-12.61,3.74h0Z"></path><path class="st0" d="M154.97,97.2c.54,0,1,.19,1.38.58.38.39.58.84.58,1.38v11.35c0,4.68-2.44,7.01-7.32,6.97-4.84-.08-7.26-2.71-7.26-7.89s2.07-8.03,6.22-8.18c1.96,0,3.44.81,4.44,2.42v-6.62h1.96ZM149.73,104.92c-2.11,0-3.23,1.5-3.34,4.49-.04,3.15,1.06,4.72,3.28,4.72s3.34-1.57,3.34-4.72c-.08-3-1.17-4.49-3.28-4.49Z"></path><path class="st0" d="M165.69,97.2c1.31,0,1.94.63,1.9,1.9v1.15h-3.92v-3.05h2.02ZM165.69,101.64c1.27,0,1.9.63,1.9,1.9v13.71h-3.92v-15.61h2.02Z"></path><path class="st0" d="M178.36,112.12c.04.81.33,1.38.86,1.73.5.38,1.29.58,2.36.58,1.65,0,2.48-.5,2.48-1.5,0-.81-1.34-1.44-4.03-1.9-3.46-.61-5.2-2.15-5.24-4.61,0-1.54.56-2.77,1.67-3.69,1.08-.84,2.59-1.29,4.55-1.32,2,0,3.59.44,4.78,1.32,1.15.92,1.77,2.19,1.84,3.8h-2.48c-.92-.04-1.5-.36-1.73-.98-.27-.69-1.06-1.04-2.36-1.04-1.54,0-2.3.4-2.3,1.21s1.02,1.4,3.05,1.79c2.65.54,4.4,1.21,5.24,2.02.73.77,1.09,1.69,1.09,2.77,0,1.73-.61,3.03-1.84,3.92-1.19.88-2.96,1.32-5.3,1.32-2.19,0-3.82-.46-4.9-1.38-1.19-.88-1.79-2.23-1.79-4.03h4.05Z"></path><path class="st0" d="M208.6,112.46c-.46,1.77-1.23,3.05-2.3,3.86-1.27.85-2.76,1.27-4.49,1.27-4.72-.15-7.08-2.88-7.08-8.18s2.38-7.97,7.14-8.01c4.95,0,7.28,3.05,6.97,9.16h-10.08c.15,2.38,1.19,3.57,3.11,3.57.92,0,1.77-.36,2.53-1.09.35-.38.79-.58,1.33-.58h2.88,0ZM204.69,107.74c-.23-2.07-1.19-3.11-2.88-3.11s-2.69,1.04-3,3.11h5.88Z"></path><path class="st0" d="M226.92,117.25c-.54,0-1-.18-1.38-.55-.38-.36-.58-.83-.58-1.41v-8.06c0-.88-.28-1.55-.83-1.99-.56-.44-1.16-.66-1.81-.66-.69,0-1.32.22-1.87.66-.56.44-.84,1.1-.84,1.99v10.02h-3.97v-9.16c0-2.65.67-4.42,2.02-5.3,1.34-.88,2.86-1.34,4.55-1.38,1.69-.04,3.24.38,4.67,1.27,1.43.89,2.13,2.69,2.13,5.41v9.16h-2.09ZM218.69,98.47c0-.58.31-1.02.92-1.32.5-.15,1.04-.13,1.61.06.58.19,1.14.38,1.7.58.56.19,1.1.33,1.64.4.5.04.96-.19,1.38-.69,0,.73-.03,1.31-.09,1.76-.06.44-.39.72-1.01.83-.54.12-1.09.06-1.67-.17-.58-.23-1.14-.44-1.7-.63s-1.08-.27-1.58-.23-.9.36-1.21.98v-1.56h.01Z"></path><path class="st0" d="M249.74,109.53c0,5.38-2.36,8.06-7.08,8.06s-7.09-2.69-7.09-8.06,2.36-8.12,7.09-8.12,7.08,2.71,7.08,8.12ZM239.54,109.53c.04,3.03,1.06,4.55,3.05,4.55s3.01-1.56,3.05-4.67c0-3.03-1-4.55-3-4.55s-3.11,1.56-3.11,4.67h0Z"></path><path class="st0" d="M275.53,108.27c0-.93.44-1.4,1.33-1.4h4.25v-5.65h1.53c.89,0,1.33.47,1.33,1.4v4.25h5.65v2.86h-5.65v5.65h-2.86v-5.65h-5.58v-1.46Z"></path><path class="st0" d="M330.45,112.46c-.46,1.77-1.23,3.05-2.3,3.86-1.27.85-2.76,1.27-4.49,1.27-4.72-.15-7.08-2.88-7.08-8.18s2.38-7.97,7.14-8.01c4.95,0,7.28,3.05,6.97,9.16h-10.08c.15,2.38,1.19,3.57,3.11,3.57.92,0,1.77-.36,2.53-1.09.35-.38.79-.58,1.33-.58h2.88,0ZM326.54,107.74c-.23-2.07-1.19-3.11-2.88-3.11s-2.69,1.04-3,3.11h5.88Z"></path><path class="st0" d="M341.05,112.12c.04.81.33,1.38.86,1.73.5.38,1.29.58,2.36.58,1.65,0,2.48-.5,2.48-1.5,0-.81-1.34-1.44-4.03-1.9-3.46-.61-5.2-2.15-5.24-4.61,0-1.54.56-2.77,1.67-3.69,1.08-.84,2.59-1.29,4.55-1.32,2,0,3.59.44,4.78,1.32,1.15.92,1.77,2.19,1.84,3.8h-2.48c-.92-.04-1.5-.36-1.73-.98-.27-.69-1.06-1.04-2.36-1.04-1.54,0-2.3.4-2.3,1.21s1.02,1.4,3.05,1.79c2.65.54,4.4,1.21,5.24,2.02.73.77,1.09,1.69,1.09,2.77,0,1.73-.61,3.03-1.84,3.92-1.19.88-2.96,1.32-5.3,1.32-2.19,0-3.82-.46-4.9-1.38-1.19-.88-1.79-2.23-1.79-4.03h4.05Z"></path><path class="st0" d="M361.45,121.39c0,1.31-.65,1.96-1.96,1.96h-1.96v-14.92c.19-4.65,2.63-6.97,7.32-6.97s7.26,2.63,7.26,7.89-2.07,8.03-6.22,8.18c-1.96,0-3.44-.81-4.44-2.42v6.28ZM368.07,109.53c0-3.15-1.11-4.72-3.34-4.72s-3.32,1.57-3.28,4.72c.12,3,1.23,4.49,3.34,4.49s3.21-1.5,3.28-4.49Z"></path><path class="st0" d="M384.89,117.53c-1.54.12-2.84-.1-3.92-.63-1.61-.81-2.42-2.23-2.42-4.26.04-1.57.58-2.76,1.61-3.57,1.04-.81,2.75-1.32,5.13-1.56,1.69-.19,2.53-.71,2.53-1.56-.08-.88-.92-1.32-2.53-1.32-1.38,0-2.17.36-2.36,1.09h-3.92c.46-2.88,2.5-4.32,6.11-4.32,4.3,0,6.49,1.44,6.57,4.32v5.3c0,2.65-.96,4.49-2.88,5.53-1.04.54-2.34.86-3.92.98ZM384.78,110.33c-1.57.31-2.36,1.04-2.36,2.19.08,1.23.73,1.84,1.96,1.84,1.08,0,1.94-.31,2.59-.92.61-.61.92-1.48.92-2.59v-1.44c-.92.38-1.96.69-3.11.92Z"></path><path class="st0" d="M412.32,112.46c-.38,1.73-1.13,3-2.25,3.8-1.23.92-2.69,1.36-4.38,1.32-4.72,0-7.14-2.69-7.26-8.06,0-5.34,2.4-8.04,7.2-8.12,3.76,0,5.99,1.69,6.68,5.07h-4.26c-.46-1.08-1.31-1.61-2.53-1.61-2.07,0-3.11,1.56-3.11,4.67s1.09,4.65,3.28,4.61c.92,0,1.71-.36,2.36-1.09.38-.38.83-.58,1.33-.58h2.94Z"></path><path class="st0" d="M421.36,97.2c1.31,0,1.94.63,1.9,1.9v1.15h-3.92v-3.05h2.02ZM421.36,101.64c1.27,0,1.9.63,1.9,1.9v13.71h-3.92v-15.61h2.02Z"></path><path class="st0" d="M444.52,109.53c0,5.38-2.36,8.06-7.08,8.06s-7.08-2.69-7.08-8.06,2.36-8.12,7.08-8.12,7.08,2.71,7.08,8.12ZM434.32,109.53c.04,3.03,1.06,4.55,3.05,4.55s3.01-1.56,3.05-4.67c0-3.03-1-4.55-3-4.55s-3.11,1.56-3.11,4.67h.01Z"></path><path class="st0" d="M96.54.1H21.54C9.64.1,0,9.72,0,21.59v96.27h96.53c11.9,0,21.54-9.62,21.54-21.49V21.57C118.07,9.7,108.43.08,96.53.08v.02h.01ZM16.17,99.75L46.16,23.67c1.58-3.63,4.56-5.45,8.95-5.45h10.77l-29.98,81.53h-19.73ZM82.18,99.75l-20.41-55.76,8.37-23.01,31.77,78.78h-19.73Z"></path></svg>