<svg width="126" height="58" viewBox="0 0 126 58" fill="none" xmlns="http://www.w3.org/2000/svg">
<g clip-path="url(#clip0_1720_17898)">
<path d="M82.1971 8.71289V26.9866H71.6279V10.4995L82.1971 8.71289Z" fill="#63AD58"/>
<path d="M95.546 0V26.9866H84.9736V1.81896L95.546 0Z" fill="#83B972"/>
<path d="M108.827 12.6V26.9866H98.2578V14.3995L108.827 12.6Z" fill="#98C38A"/>
<path d="M0.015625 31.9839H8.33441V33.9841H2.24359V38.3729H8.33441V40.3763H2.24359V47.7007H0.015625V31.9839Z" fill="#FFFFFF"/>
<path d="M18.7343 31.7573C21.1385 31.7573 23.141 32.5266 24.7417 34.065C25.5237 34.8032 26.142 35.7003 26.5559 36.6972C26.9697 37.6941 27.1697 38.7682 27.1428 39.8488C27.1711 40.9278 26.9694 42.0004 26.5512 42.9938C26.1331 43.9872 25.5083 44.8783 24.7193 45.6066C23.1058 47.117 21.0691 47.8722 18.6092 47.8722C16.2584 47.8722 14.304 47.117 12.746 45.6066C11.9807 44.8734 11.3766 43.986 10.9729 43.0019C10.5692 42.0177 10.3749 40.9589 10.4026 39.8941C10.3715 38.8105 10.5654 37.7324 10.9717 36.7291C11.3781 35.7257 11.9879 34.8194 12.762 34.0682C14.3371 32.5298 16.3278 31.7595 18.7343 31.7573ZM18.8208 33.8967C18.0139 33.8676 17.2093 34.0017 16.4545 34.2913C15.6997 34.5809 15.0099 35.0201 14.4258 35.583C13.8575 36.1411 13.4109 36.8128 13.1145 37.5551C12.8181 38.2975 12.6784 39.0941 12.7043 39.8941C12.6832 40.6819 12.8255 41.4655 13.1219 42.1945C13.4184 42.9235 13.8625 43.582 14.4258 44.1275C14.9984 44.6852 15.6757 45.1216 16.4178 45.4112C17.1599 45.7008 17.9518 45.8377 18.7471 45.8138C19.5491 45.837 20.3476 45.6965 21.0945 45.4006C21.8415 45.1047 22.5216 44.6596 23.094 44.0919C23.6647 43.5402 24.1154 42.8746 24.4173 42.1373C24.7192 41.4001 24.8657 40.6075 24.8475 39.8099C24.8648 39.0244 24.7184 38.244 24.418 37.5192C24.1176 36.7944 23.6698 36.1414 23.1036 35.6024C22.5389 35.0434 21.869 34.6045 21.1333 34.3115C20.3977 34.0186 19.6114 33.8775 18.8208 33.8967Z" fill="#FFFFFF"/>
<path d="M29.4287 47.7039V31.9839H33.3397C34.9126 31.9839 36.1617 32.3777 37.0871 33.1652C37.5448 33.5553 37.9079 34.046 38.1485 34.5998C38.3891 35.1535 38.5009 35.7556 38.4752 36.3597C38.5091 37.2065 38.2717 38.0417 37.7982 38.7414C37.3246 39.4411 36.6402 39.9679 35.8465 40.2436C36.3946 40.6202 36.8858 41.0748 37.3051 41.5933C38.0394 42.5404 38.7098 43.5363 39.3119 44.5742C39.8536 45.4675 40.2896 46.1374 40.6166 46.5906L41.4405 47.7137H38.7894L38.1097 46.678C38.0873 46.6424 38.0424 46.5776 37.9751 46.487L37.5423 45.8688L36.8499 44.7198L36.1062 43.4932C35.7261 42.9448 35.3026 42.4285 34.8399 41.9493C34.5338 41.6264 34.1841 41.3485 33.8013 41.124C33.3088 40.9216 32.777 40.8353 32.2465 40.8715H31.6567V47.7137L29.4287 47.7039ZM32.3138 33.8967H31.6567V38.8584H32.503C33.6314 38.8584 34.4061 38.7613 34.8271 38.5671C35.2368 38.3822 35.5796 38.0735 35.8081 37.6835C36.0463 37.2761 36.1683 36.8101 36.1607 36.3371C36.1648 35.8602 36.0287 35.3927 35.7696 34.9939C35.5106 34.5926 35.1239 34.2924 34.6732 34.1427C33.9072 33.945 33.1166 33.8621 32.3267 33.8967H32.3138Z" fill="#FFFFFF"/>
<path d="M41.4785 31.9612H54.4969V33.9647H49.0472V47.704H46.8032V33.9647H41.4785V31.9612Z" fill="#FFFFFF"/>
<path d="M61.0396 31.8932H62.6072L69.5892 47.7039H67.3196L65.2327 43.0465H58.5873L56.6446 47.7039H54.3525L61.0396 31.8932ZM64.3158 41.0431L61.8026 35.3499L59.4752 41.0431H64.3158Z" fill="#FFFFFF"/>
<path d="M71.6826 31.9839H73.9266V45.6584H80.9375V47.7039H71.6826V31.9839Z" fill="#FFFFFF"/>
<path d="M83.7168 31.9839H92.5453V33.9841H85.948V38.7775H92.3241V40.7809H85.948V45.6649H92.7569V47.6683H83.7168V31.9839Z" fill="#FFFFFF"/>
<path d="M95.6321 31.9612H109.051L99.1135 45.7005H109.051V47.704H94.9941L104.957 33.9647H95.6321V31.9612Z" fill="#FFFFFF"/>
<path d="M117.454 31.8932H119.022L126 47.7039H123.721L121.644 43.0465H115.002L113.056 47.7039H110.764L117.454 31.8932ZM120.73 41.0431L118.217 35.3499L115.886 41.0431H120.73Z" fill="#FFFFFF"/>
<path d="M0.96171 52.7174V57.747H0V52.7174H0.96171Z" fill="#FFFFFF"/>
<path d="M9.8283 52.7174L12.7872 56.2291V52.7174H13.7296V57.747H12.9026L9.9373 54.1803V57.7406H8.97559V52.7174H9.8283Z" fill="#FFFFFF"/>
<path d="M22.5901 52.7174L24.2283 54.6982L25.8632 52.7142H26.7223V57.7438H25.7606V54.2159H25.7317L24.2924 55.9928H24.1577L22.7152 54.2224H22.6863V57.7535H21.7246V52.7174H22.5901Z" fill="#FFFFFF"/>
<path d="M37.276 52.6527C37.7598 52.6462 38.2381 52.7572 38.6705 52.9763C39.0781 53.187 39.4191 53.5088 39.6547 53.9052C39.8329 54.2002 39.9497 54.5288 39.9977 54.8708C40.0457 55.2129 40.0241 55.5613 39.934 55.8947C39.844 56.228 39.6875 56.5393 39.4741 56.8094C39.2607 57.0795 38.9949 57.3027 38.693 57.4655C38.2554 57.6858 37.7731 57.8004 37.2841 57.8004C36.7951 57.8004 36.3128 57.6858 35.8752 57.4655C35.4683 57.2522 35.1277 56.9297 34.891 56.5333C34.6565 56.1432 34.5333 55.6951 34.5352 55.2387C34.5359 54.7827 34.6589 54.3353 34.891 53.9441C35.1186 53.5451 35.4515 53.2179 35.8527 52.999C36.2913 52.766 36.7805 52.647 37.276 52.6527ZM35.5193 55.2419C35.514 55.5566 35.5915 55.8671 35.7437 56.1417C35.8944 56.4055 36.1169 56.6201 36.3849 56.7599C36.6637 56.9102 36.976 56.986 37.2921 56.98C37.5236 56.9886 37.7545 56.9501 37.9709 56.8667C38.1874 56.7833 38.385 56.6567 38.5519 56.4945C38.7161 56.3319 38.8448 56.1365 38.9298 55.9209C39.0148 55.7052 39.0542 55.4739 39.0456 55.2419C39.05 54.9267 38.9739 54.6157 38.8244 54.3389C38.673 54.0749 38.4507 53.8595 38.1833 53.7175C37.9025 53.5697 37.5895 53.4951 37.2728 53.5007C36.9558 53.4947 36.6424 53.5705 36.3624 53.7207C36.0999 53.8613 35.8838 54.0761 35.7405 54.3389C35.5913 54.6135 35.5151 54.9223 35.5193 55.2355V55.2419Z" fill="#FFFFFF"/>
<path d="M49.6502 52.7174C50.0532 52.6982 50.4495 52.827 50.7658 53.0799C50.9021 53.1857 51.0121 53.3221 51.0872 53.4783C51.1623 53.6344 51.2004 53.8061 51.1986 53.9796C51.202 54.1963 51.1393 54.4087 51.019 54.5881C50.8857 54.7727 50.7051 54.917 50.4965 55.0056V55.0477C50.8112 55.1082 51.0968 55.2735 51.3076 55.517C51.4987 55.747 51.6011 56.0389 51.5961 56.3391C51.5999 56.6039 51.5263 56.864 51.3845 57.0868C51.2434 57.3082 51.0387 57.481 50.7979 57.582C50.5162 57.6979 50.2139 57.754 49.9099 57.747H47.8262V52.7174H49.6502ZM49.3938 54.805C49.6096 54.8185 49.8231 54.7542 49.9964 54.6237C50.0698 54.5615 50.128 54.4829 50.1664 54.3942C50.2048 54.3055 50.2223 54.209 50.2176 54.1123C50.2213 54.0247 50.205 53.9375 50.17 53.8572C50.135 53.777 50.0822 53.7059 50.0157 53.6495C49.8629 53.5303 49.6732 53.4695 49.4803 53.478H48.7879V54.805H49.3938ZM49.6182 56.9897C49.8775 57.0088 50.1361 56.943 50.3555 56.8019C50.4375 56.7384 50.5031 56.6557 50.5466 56.5611C50.5901 56.4664 50.6103 56.3625 50.6055 56.2582C50.6091 56.1595 50.5884 56.0615 50.5453 55.9728C50.5022 55.8842 50.4381 55.8076 50.3587 55.7501C50.1627 55.6184 49.9301 55.5538 49.6951 55.5656H48.7879V56.9897H49.6182Z" fill="#FFFFFF"/>
<path d="M60.2957 52.7174V57.747H59.334V52.7174H60.2957Z" fill="#FFFFFF"/>
<path d="M69.2781 52.7174V56.9897H71.6952V57.747H68.3164V52.7174H69.2781Z" fill="#FFFFFF"/>
<path d="M80.242 52.7174V57.747H79.2803V52.7174H80.242Z" fill="#FFFFFF"/>
<path d="M90.7851 52.7174L92.9874 57.747H91.968L91.4519 56.5236H89.2367L88.7559 57.747H87.7461L89.8009 52.7174H90.7851ZM89.5317 55.7857H91.1345L90.2946 53.7952L89.5317 55.7857Z" fill="#FFFFFF"/>
<path d="M102.262 52.7174C102.679 52.7 103.087 52.8409 103.406 53.1122C103.644 53.3331 103.796 53.6314 103.837 53.9546C103.878 54.2778 103.805 54.6052 103.631 54.8794C103.468 55.1052 103.246 55.2802 102.99 55.3843C103.152 55.4716 103.296 55.5904 103.413 55.7339C103.591 55.969 103.746 56.2216 103.874 56.488C104.179 57.0965 104.403 57.5172 104.551 57.747H103.477C103.368 57.5766 103.269 57.4005 103.179 57.2194C102.996 56.8474 102.794 56.4855 102.573 56.1352C102.474 55.9815 102.348 55.8476 102.201 55.7403C102.078 55.6617 101.936 55.6212 101.791 55.6238H101.441V57.747H100.479V52.7174H102.262ZM102.044 54.8632C102.258 54.8776 102.47 54.8094 102.637 54.6723C102.71 54.6077 102.768 54.5273 102.805 54.437C102.843 54.3468 102.86 54.249 102.855 54.1512C102.862 54.0539 102.846 53.9563 102.809 53.8664C102.771 53.7764 102.714 53.6966 102.64 53.6333C102.462 53.5096 102.247 53.4503 102.031 53.465H101.432V54.8632H102.044Z" fill="#FFFFFF"/>
<path d="M113.061 52.7174V57.747H112.1V52.7174H113.061Z" fill="#FFFFFF"/>
<path d="M123.605 52.7174L125.805 57.747H124.788L124.272 56.5236H122.057L121.576 57.747H120.566L122.621 52.7174H123.605ZM122.352 55.7857H123.955L123.115 53.7952L122.352 55.7857Z" fill="#FFFFFF"/>
</g>
<defs>
<clipPath id="clip0_1720_17898">
<rect width="126" height="57.8118" fill="white"/>
</clipPath>
</defs>
</svg>
