<?xml version="1.0" encoding="UTF-8"?><svg id="a" xmlns="http://www.w3.org/2000/svg" viewBox="0 0 717.1 261.51"><defs><style>.b{fill:#cdde00;}.c{fill:#a3cc52;}.d{fill:#c8c8c8;}</style></defs><g><polygon class="c" points="183.53 88.09 164.69 106.93 134.31 76.67 69.68 141.3 32 141.3 134.31 39 183.53 88.09"/><polygon class="b" points="358.47 168.26 311.58 168.26 231.14 87.82 150.7 168.26 103.81 168.26 231.14 40.94 358.47 168.26"/><rect class="c" x="217.7" y="141.3" width="26.96" height="26.96" transform="translate(385.96 -76.4) rotate(90)"/></g><g><g><path class="d" d="M387.46,104.3c0-35.16,30.6-64.66,66.49-64.66,18.94,0,36.43,8.01,48.63,20.95l-19.49,17.49c-7.29-8.38-17.67-14.03-29.14-14.03-20.95,0-38.8,18.58-38.8,40.26s17.85,40.44,38.8,40.44c11.48,0,21.86-5.65,29.14-14.03l19.49,17.49c-12.2,12.75-29.69,20.95-48.63,20.95-35.88,0-66.49-29.69-66.49-64.85Z"/><path class="d" d="M520.25,41.83h44.81c42.08,0,71.95,25.87,71.95,62.48s-29.87,62.66-71.95,62.66h-44.81V41.83Zm48.27,100.73c23.86,0,40.8-15.85,40.8-38.25s-16.94-38.07-40.8-38.07h-21.49v76.32h21.49Z"/><path class="d" d="M658.14,41.83h26.96v125.14h-26.96V41.83Z"/></g><g><path class="d" d="M387.46,190.79c0-4.48,3.81-8.24,8.29-8.24,2.27,0,4.36,.95,5.87,2.51l-1.65,1.58c-1.07-1.16-2.58-1.93-4.22-1.93-3.18,0-5.87,2.78-5.87,6.08s2.69,6.11,5.87,6.11c1.65,0,3.15-.77,4.22-1.93l1.65,1.58c-1.51,1.53-3.6,2.51-5.87,2.51-4.48,0-8.29-3.78-8.29-8.26Z"/><path class="d" d="M411.38,190.79c0-4.48,3.81-8.24,8.29-8.24s8.24,3.76,8.24,8.24-3.76,8.26-8.24,8.26-8.29-3.78-8.29-8.26Zm14.13,0c0-3.3-2.67-6.08-5.85-6.08s-5.87,2.78-5.87,6.08,2.69,6.11,5.87,6.11,5.85-2.78,5.85-6.11Z"/><path class="d" d="M442.14,182.84h2.34l9.17,12.09v-12.09h2.34v15.94h-2.34l-9.17-12.09v12.09h-2.34v-15.94Z"/><path class="d" d="M471.35,196.48l1.42-1.74c1.41,1.34,3.09,2.23,5.24,2.23s3.34-1.16,3.34-2.44c0-1.51-1.32-2.09-3.99-2.69-3.25-.77-5.41-1.74-5.41-4.62,0-2.67,2.32-4.69,5.53-4.69,2.46,0,4.29,.91,5.82,2.25l-1.34,1.76c-1.35-1.23-2.95-1.95-4.57-1.95-1.79,0-3.04,1.13-3.04,2.41,0,1.49,1.37,1.99,3.99,2.62,3.18,.74,5.39,1.81,5.39,4.67,0,2.69-2.04,4.74-5.8,4.74-2.67,0-4.87-.93-6.57-2.55Z"/><path class="d" d="M503.39,185.02h-5.22v-2.18h12.81v2.18h-5.24v13.76h-2.34v-13.76Z"/><path class="d" d="M530.55,193l4.06,5.78h-2.69l-3.9-5.55h-3.67v5.55h-2.34v-15.94h6.71c3.37,0,5.92,2.16,5.92,5.2,0,2.46-1.67,4.34-4.08,4.97Zm-6.2-1.95h4.04c2.3,0,3.85-1.14,3.85-3.02s-1.55-3.02-3.85-3.02h-4.04v6.03Z"/><path class="d" d="M545.18,192.07v-9.24h2.34v9.19c0,2.85,1.86,4.9,4.5,4.9s4.48-2.04,4.48-4.9v-9.19h2.37v9.24c0,4.08-2.85,6.98-6.85,6.98s-6.85-2.9-6.85-6.98Z"/><path class="d" d="M568.71,190.79c0-4.48,3.81-8.24,8.29-8.24,2.27,0,4.36,.95,5.87,2.51l-1.65,1.58c-1.07-1.16-2.58-1.93-4.22-1.93-3.18,0-5.87,2.78-5.87,6.08s2.69,6.11,5.87,6.11c1.65,0,3.15-.77,4.22-1.93l1.65,1.58c-1.51,1.53-3.6,2.51-5.87,2.51-4.48,0-8.29-3.78-8.29-8.26Z"/><path class="d" d="M599.05,185.02h-5.22v-2.18h12.81v2.18h-5.24v13.76h-2.34v-13.76Z"/><path class="d" d="M619.1,190.79c0-4.48,3.81-8.24,8.29-8.24s8.24,3.76,8.24,8.24-3.76,8.26-8.24,8.26-8.29-3.78-8.29-8.26Zm14.13,0c0-3.3-2.67-6.08-5.85-6.08s-5.87,2.78-5.87,6.08,2.69,6.11,5.87,6.11,5.85-2.78,5.85-6.11Z"/><path class="d" d="M654.16,193l4.06,5.78h-2.69l-3.9-5.55h-3.67v5.55h-2.34v-15.94h6.71c3.37,0,5.92,2.16,5.92,5.2,0,2.46-1.67,4.34-4.08,4.97Zm-6.2-1.95h4.04c2.3,0,3.85-1.14,3.85-3.02s-1.55-3.02-3.85-3.02h-4.04v6.03Z"/><path class="d" d="M681.1,195.53h-8.31l-1.39,3.25h-2.6l6.85-15.94h2.6l6.85,15.94h-2.6l-1.39-3.25Zm-.91-2.11l-3.25-7.57-3.25,7.57h6.5Z"/><path class="d" d="M393.37,206.29h2.34v15.94h-2.34v-15.94Z"/><path class="d" d="M412.72,206.29h2.34l9.17,12.09v-12.09h2.34v15.94h-2.34l-9.17-12.09v12.09h-2.34v-15.94Z"/><path class="d" d="M441.13,206.29h2.34l5.59,10.42,5.59-10.42h2.34v15.94h-2.34v-11.35l-5.59,10.42-5.59-10.42v11.35h-2.34v-15.94Z"/><path class="d" d="M469.28,214.25c0-4.48,3.81-8.24,8.29-8.24s8.24,3.76,8.24,8.24-3.76,8.26-8.24,8.26-8.29-3.78-8.29-8.26Zm14.13,0c0-3.3-2.67-6.08-5.85-6.08s-5.87,2.78-5.87,6.08,2.69,6.11,5.87,6.11,5.85-2.78,5.85-6.11Z"/><path class="d" d="M498.19,206.29h7.57c2.67,0,4.55,1.65,4.55,3.97,0,1.67-.84,2.72-2.28,3.53,1.86,.91,2.92,2.34,2.92,4.11,0,2.55-2.04,4.34-4.9,4.34h-7.87v-15.94Zm6.98,6.64c1.6,0,2.74-.95,2.74-2.28s-1.14-2.3-2.74-2.3h-4.64v4.57h4.64Zm.35,7.24c1.79,0,3.04-1.09,3.04-2.62s-1.25-2.62-3.04-2.62h-4.99v5.24h4.99Z"/><path class="d" d="M527.15,206.29h2.34v15.94h-2.34v-15.94Z"/><path class="d" d="M557.43,220.05v2.18h-10.82v-15.94h2.37v13.76h8.45Z"/><path class="d" d="M574.62,206.29h2.34v15.94h-2.34v-15.94Z"/><path class="d" d="M604.38,218.98h-8.31l-1.39,3.25h-2.6l6.85-15.94h2.6l6.85,15.94h-2.6l-1.39-3.25Zm-.91-2.11l-3.25-7.57-3.25,7.57h6.5Z"/><path class="d" d="M629.6,216.45l4.06,5.78h-2.69l-3.9-5.55h-3.67v5.55h-2.34v-15.94h6.71c3.37,0,5.92,2.16,5.92,5.2,0,2.46-1.67,4.34-4.08,4.97Zm-6.2-1.95h4.04c2.3,0,3.85-1.14,3.85-3.02s-1.55-3.02-3.85-3.02h-4.04v6.03Z"/><path class="d" d="M650.76,206.29h2.34v15.94h-2.34v-15.94Z"/><path class="d" d="M681.1,218.98h-8.31l-1.39,3.25h-2.6l6.85-15.94h2.6l6.85,15.94h-2.6l-1.39-3.25Zm-.91-2.11l-3.25-7.57-3.25,7.57h6.5Z"/></g></g></svg>