<svg xmlns="http://www.w3.org/2000/svg" width="211.779" height="50" viewBox="0 0 211.779 50">
<g transform="translate(-204 -380)">
<path fill="#ffffff" d="M266.174,30.577h5.075l9.294,11.937h.052V30.577h5.075V50.1H280.6l-9.3-11.963h-.052V50.1h-5.073Z" transform="translate(36.135 360.716)"/>
<path fill="#ffffff"  d="M329.931,50.1h-5.072V34.878h-2.01l-2.206-4.3h13.486v4.3h-4.195Z" transform="translate(1.783 360.715)"/>
<path fill="#ffffff"  d="M375.644,38.873a10.8,10.8,0,0,1-21.6,0c0-5.9,5.18-10.046,10.8-10.046s10.8,4.143,10.8,10.047m-16.313.026a5.524,5.524,0,1,0,11.031,0,5.528,5.528,0,0,0-11.031,0" transform="translate(-19.284 361.82)"/>
<path fill="#ffffff"  d="M418.812,45.8h3.878l2.208,4.3H413.736V30.577h5.077Z" transform="translate(-56.927 360.716)"/>
<path fill="#ffffff"  d="M465.714,63.735v0Z" transform="translate(-89.708 339.807)"/>
<path fill="#ffffff"  d="M456.743,30.577H451.2L443.691,50.1h5.388l4.842-13.491h.052l2.072,6.214h-4.22l2,3.884h3.595l1.268,3.394H464.1Z" transform="translate(-75.819 360.716)"/>
<path fill="#ffffff"  d="M223.038,30.577H217.5L209.988,50.1h5.386l4.842-13.491h.052l2.071,6.214h-4.217l2,3.884h3.6l1.268,3.394h5.413Z" transform="translate(71.569 360.716)"/>
<path fill="#ffffff"  d="M180.415,29.176c-3.911,0-6.733,2.587-6.733,6.551,0,3.781,2.1,4.61,5.282,5.516,1.087.311,3.081.8,3.081,2.227,0,1.372-1.269,1.968-2.46,1.968a6.846,6.846,0,0,1-4.391-1.923L173.508,47.9a11.958,11.958,0,0,0,6.26,1.836,8.563,8.563,0,0,0,5.542-1.839,6.632,6.632,0,0,0,2.02-5.257c0-3.159-2.1-4.531-4.815-5.334l-1.3-.389c-.88-.284-2.253-.725-2.253-1.864,0-1.088,1.244-1.631,2.175-1.631a5.319,5.319,0,0,1,3.307,1.249l1.592-4.141a13.479,13.479,0,0,0-5.625-1.354" transform="translate(94.575 361.6)"/>
<path fill="#ffffff"  d="M531.2,30.577h-5.541L518.151,50.1h5.386l4.842-13.491h.052l2.072,6.214h-4.218l1.994,3.884h3.6l1.27,3.394h5.412Z" transform="translate(-122.778 360.716)"/>
<path fill="#ffffff"  d="M481.971,30.577h6.085l3.652,5.311,3.651-5.309h6.085l-7.2,10.149V50.1H489.17V40.729Z" transform="translate(-99.96 360.716)"/>
<path d="M21.79,23.486C34.069,4.873,40.266,1.394,50,.894V0H0V39.278c5.5-1.088,14.413-4.614,21.79-15.793" transform="translate(204 380)" fill="#0626a9"/>
<path d="M30.276,47.954C20.186,63.246,7.406,67.378,0,68.435v.435H50V29.92c-5.722.351-9.588,2.671-19.724,18.034" transform="translate(204 361.131)" fill="#ffb719"/><g transform="translate(268.422 413.7)">
<path d="M176.662,96.014v.828h-3.329V91.576h.958v4.439Z" transform="translate(-173.333 -91.454)"/>
<path d="M197.371,94a3.271,3.271,0,0,1-.2,1.193,2.469,2.469,0,0,1-.547.863,2.253,2.253,0,0,1-.809.52,2.776,2.776,0,0,1-.988.175,2.806,2.806,0,0,1-.992-.175,2.24,2.24,0,0,1-.813-.52,2.5,2.5,0,0,1-.551-.863,3.56,3.56,0,0,1,0-2.382,2.5,2.5,0,0,1,.559-.863,2.311,2.311,0,0,1,.817-.524,2.838,2.838,0,0,1,1.961,0,2.236,2.236,0,0,1,.809.524,2.553,2.553,0,0,1,.551.863A3.186,3.186,0,0,1,197.371,94m-4.112,0a2.736,2.736,0,0,0,.106.787,1.731,1.731,0,0,0,.308.6,1.4,1.4,0,0,0,.49.384,1.508,1.508,0,0,0,.654.137,1.49,1.49,0,0,0,.646-.137,1.393,1.393,0,0,0,.49-.384,1.725,1.725,0,0,0,.308-.6,2.964,2.964,0,0,0,0-1.573,1.727,1.727,0,0,0-.308-.6,1.4,1.4,0,0,0-.49-.384,1.49,1.49,0,0,0-.646-.137,1.508,1.508,0,0,0-.654.137,1.378,1.378,0,0,0-.49.388,1.778,1.778,0,0,0-.308.6,2.7,2.7,0,0,0-.106.783" transform="translate(-185.302 -91.245)"/>
<path d="M235.663,91.575h.958v5.267h-.958V94.509h-2.288v2.333h-.958V91.575h.958v2.105h2.288Z" transform="translate(-210.688 -91.454)"/>
<path d="M259.06,96.842q-.107-.312-.221-.616c-.076-.2-.15-.41-.221-.623h-2.225q-.107.319-.217.627t-.217.612h-1q.3-.843.562-1.558t.52-1.353q.254-.638.5-1.216t.517-1.14h.914q.266.563.517,1.14T259,93.931q.255.638.524,1.353t.566,1.558Zm-1.554-4.248q-.175.4-.4.98t-.467,1.254h1.733q-.243-.676-.471-1.262t-.395-.973" transform="translate(-224.942 -91.454)"/>
<path d="M281.66,96.747a2.934,2.934,0,0,1-1.064-.182,2.1,2.1,0,0,1-.8-.536,2.4,2.4,0,0,1-.5-.863,3.6,3.6,0,0,1-.175-1.17,3.159,3.159,0,0,1,.2-1.171,2.532,2.532,0,0,1,.551-.862,2.308,2.308,0,0,1,.821-.536,2.771,2.771,0,0,1,1.011-.182,3.276,3.276,0,0,1,.593.049,4.16,4.16,0,0,1,.464.11,1.917,1.917,0,0,1,.327.129q.129.068.182.1l-.281.783a2.248,2.248,0,0,0-.521-.217,2.515,2.515,0,0,0-.733-.1,1.71,1.71,0,0,0-.638.118,1.382,1.382,0,0,0-.513.353,1.651,1.651,0,0,0-.338.593,2.572,2.572,0,0,0-.121.828,2.923,2.923,0,0,0,.095.768,1.7,1.7,0,0,0,.293.6,1.33,1.33,0,0,0,.5.395,1.726,1.726,0,0,0,.73.141,2.768,2.768,0,0,0,.828-.1,3.244,3.244,0,0,0,.494-.194l.259.783a1.288,1.288,0,0,1-.247.121,3.458,3.458,0,0,1-.368.118,3.705,3.705,0,0,1-.479.091,4.486,4.486,0,0,1-.57.034" transform="translate(-240.216 -91.245)"/>
<path d="M302.143,96.842V91.575h3.382v.813H303.1v1.3h2.159v.8H303.1v1.543h2.607v.813Z" transform="translate(-254.771 -91.454)"/>
<path d="M324.457,91.576q.167.289.372.707t.418.877q.213.461.422.935t.384.878l.38-.878q.205-.475.418-.935t.418-.877q.205-.418.372-.707h.863q.069.578.131,1.228t.112,1.329q.051.681.093,1.368t.074,1.341h-.942q-.031-.92-.074-1.893t-.128-1.885c-.056.117-.121.256-.2.418s-.157.338-.243.528-.174.386-.262.588l-.259.59q-.126.285-.232.531l-.182.422h-.715q-.077-.174-.182-.426t-.232-.536q-.125-.285-.258-.589t-.262-.586l-.243-.528q-.114-.247-.2-.414-.085.912-.128,1.885t-.074,1.893h-.942q.031-.653.074-1.353t.093-1.386q.05-.688.112-1.334t.132-1.193Z" transform="translate(-268.059 -91.454)"/>
<path d="M355.652,94a3.27,3.27,0,0,1-.2,1.193,2.469,2.469,0,0,1-.547.863,2.253,2.253,0,0,1-.809.52,2.775,2.775,0,0,1-.988.175,2.806,2.806,0,0,1-.992-.175,2.239,2.239,0,0,1-.813-.52,2.5,2.5,0,0,1-.551-.863,3.56,3.56,0,0,1,0-2.382,2.5,2.5,0,0,1,.559-.863,2.31,2.31,0,0,1,.817-.524,2.838,2.838,0,0,1,1.961,0,2.236,2.236,0,0,1,.809.524,2.552,2.552,0,0,1,.551.863A3.186,3.186,0,0,1,355.652,94m-4.112,0a2.734,2.734,0,0,0,.106.787,1.73,1.73,0,0,0,.308.6,1.4,1.4,0,0,0,.49.384,1.508,1.508,0,0,0,.653.137,1.49,1.49,0,0,0,.646-.137,1.393,1.393,0,0,0,.49-.384,1.725,1.725,0,0,0,.308-.6,2.964,2.964,0,0,0,0-1.573,1.727,1.727,0,0,0-.308-.6,1.4,1.4,0,0,0-.49-.384,1.49,1.49,0,0,0-.646-.137,1.508,1.508,0,0,0-.653.137,1.378,1.378,0,0,0-.49.388,1.777,1.777,0,0,0-.308.6,2.694,2.694,0,0,0-.106.783" transform="translate(-285.372 -91.245)"/>
<path d="M376.982,95.919a1.277,1.277,0,0,0,.752-.175.578.578,0,0,0,.236-.494.642.642,0,0,0-.08-.327.845.845,0,0,0-.228-.247,1.907,1.907,0,0,0-.362-.205q-.213-.095-.486-.186t-.529-.217a1.782,1.782,0,0,1-.448-.293,1.342,1.342,0,0,1-.312-.418,1.328,1.328,0,0,1-.118-.585,1.372,1.372,0,0,1,.494-1.121,2.055,2.055,0,0,1,1.345-.407,3.184,3.184,0,0,1,.878.11,2.693,2.693,0,0,1,.6.239l-.3.775a2.255,2.255,0,0,0-.566-.22,2.632,2.632,0,0,0-.634-.076,1,1,0,0,0-.6.16.524.524,0,0,0-.217.448.59.59,0,0,0,.072.3.735.735,0,0,0,.205.224,1.814,1.814,0,0,0,.312.182q.178.084.391.16.373.137.665.277a1.9,1.9,0,0,1,.494.334,1.315,1.315,0,0,1,.307.456,1.686,1.686,0,0,1,.107.634,1.317,1.317,0,0,1-.505,1.106,2.381,2.381,0,0,1-1.478.391,3.952,3.952,0,0,1-.6-.042,3.864,3.864,0,0,1-.479-.1,3.23,3.23,0,0,1-.361-.125,2.152,2.152,0,0,1-.243-.118l.281-.783a3.271,3.271,0,0,0,.555.228,2.745,2.745,0,0,0,.844.114" transform="translate(-301.025 -91.245)"/>
<path d="M412.422,91.431a3.053,3.053,0,0,1,1.745.418,1.576,1.576,0,0,1-.452,2.728q.145.175.327.426t.373.544q.189.293.365.6t.311.6h-1.072q-.144-.274-.311-.551t-.338-.54q-.171-.262-.338-.494t-.312-.414c-.071,0-.132.007-.182.007h-.608v1.991h-.958V91.56a5.116,5.116,0,0,1,.745-.1q.4-.026.706-.026m.069.828q-.3,0-.562.023v1.7h.418a4.4,4.4,0,0,0,.616-.038,1.28,1.28,0,0,0,.445-.137.666.666,0,0,0,.27-.266.884.884,0,0,0,.091-.426.848.848,0,0,0-.091-.41.68.68,0,0,0-.262-.266,1.245,1.245,0,0,0-.407-.14,2.955,2.955,0,0,0-.517-.042" transform="translate(-323.575 -91.363)"/>
<path d="M433.5,96.842V91.575h3.382v.813h-2.425v1.3h2.159v.8h-2.159v1.543h2.607v.813Z" transform="translate(-337.818 -91.454)"/>
<path d="M457.7,96.842q-.107-.312-.221-.616c-.076-.2-.15-.41-.221-.623h-2.225q-.107.319-.217.627t-.217.612h-1q.3-.843.562-1.558t.52-1.353q.254-.638.5-1.216t.517-1.14h.914q.267.563.517,1.14t.506,1.216q.254.638.524,1.353t.566,1.558Zm-1.555-4.248q-.174.4-.4.98t-.467,1.254h1.733q-.244-.676-.471-1.262t-.395-.973" transform="translate(-350.53 -91.454)"/>
<path d="M481.981,96.014v.828h-3.329V91.576h.958v4.439Z" transform="translate(-366.366 -91.454)"/><rect width="0.958" height="5.267" transform="translate(119.764 0.121)"/>
<path d="M518.791,94.114a3.053,3.053,0,0,1-.213,1.189,2.247,2.247,0,0,1-.6.844,2.515,2.515,0,0,1-.942.5,4.286,4.286,0,0,1-1.22.163q-.319,0-.722-.027a4.844,4.844,0,0,1-.768-.11V91.56a4.624,4.624,0,0,1,.775-.107q.411-.023.73-.023a4.405,4.405,0,0,1,1.208.156,2.484,2.484,0,0,1,.939.487,2.185,2.185,0,0,1,.6.836,3.1,3.1,0,0,1,.213,1.2m-3.511,1.847c.056.005.129.009.221.011s.215,0,.372,0a1.921,1.921,0,0,0,1.44-.491,2.246,2.246,0,0,0,.011-2.747,1.919,1.919,0,0,0-1.436-.479,5.606,5.606,0,0,0-.608.023Z" transform="translate(-388.918 -91.363)"/>
<path d="M540.758,96.842q-.107-.312-.221-.616c-.076-.2-.15-.41-.221-.623h-2.225q-.107.319-.217.627t-.217.612h-1q.3-.843.562-1.558t.52-1.353q.254-.638.5-1.216t.517-1.14h.914q.266.563.517,1.14t.505,1.216q.255.638.524,1.353t.566,1.558ZM539.2,92.594q-.175.4-.4.98t-.467,1.254h1.733q-.243-.676-.471-1.262t-.4-.973" transform="translate(-403.042 -91.454)"/>
<path d="M566.177,94.114a3.053,3.053,0,0,1-.213,1.189,2.246,2.246,0,0,1-.6.844,2.515,2.515,0,0,1-.942.5,4.286,4.286,0,0,1-1.22.163q-.319,0-.722-.027a4.845,4.845,0,0,1-.768-.11V91.56a4.625,4.625,0,0,1,.775-.107q.411-.023.73-.023a4.406,4.406,0,0,1,1.208.156,2.483,2.483,0,0,1,.939.487,2.184,2.184,0,0,1,.6.836,3.1,3.1,0,0,1,.213,1.2m-3.511,1.847c.056.005.129.009.221.011s.215,0,.372,0a1.921,1.921,0,0,0,1.44-.491,2.246,2.246,0,0,0,.011-2.747,1.919,1.919,0,0,0-1.436-.479,5.606,5.606,0,0,0-.608.023Z" transform="translate(-418.877 -91.363)"/></g></g></svg>